<svg width="223" height="163" viewBox="0 0 223 163" fill="none" xmlns="http://www.w3.org/2000/svg">
<path d="M4.08595 48V13.73H9.51395V32.314L8.08795 31.762L23.5899 13.73H30.3519L16.6439 29.784L16.9199 25.92L30.9039 48H24.5099L14.4819 32.314L9.51395 38.11V48H4.08595ZM43.3193 48.552C41.4486 48.552 39.8079 48.138 38.3973 47.31C36.9866 46.4513 35.8826 45.2707 35.0853 43.768C34.3186 42.2347 33.9353 40.4713 33.9353 38.478V23.114H39.1333V38.018C39.1333 39.1527 39.3633 40.1493 39.8233 41.008C40.2833 41.8667 40.9273 42.5413 41.7553 43.032C42.5833 43.492 43.5339 43.722 44.6073 43.722C45.7113 43.722 46.6773 43.4767 47.5053 42.986C48.3333 42.4953 48.9773 41.8053 49.4373 40.916C49.9279 40.0267 50.1733 38.984 50.1733 37.788V23.114H55.3253V48H50.4033V43.124L50.9553 43.768C50.3726 45.3013 49.4066 46.482 48.0573 47.31C46.7079 48.138 45.1286 48.552 43.3193 48.552ZM74.6884 48.552C72.7564 48.552 70.9931 48.1533 69.3984 47.356C67.8344 46.5587 66.6231 45.4087 65.7644 43.906L66.3624 42.94V48H61.3944V13.178H66.5924V28.266L65.7644 27.07C66.6844 25.6593 67.9111 24.5553 69.4444 23.758C70.9777 22.9607 72.7257 22.562 74.6884 22.562C77.0497 22.562 79.1657 23.1293 81.0364 24.264C82.9377 25.3987 84.4251 26.9473 85.4984 28.91C86.6024 30.8727 87.1544 33.0807 87.1544 35.534C87.1544 37.9873 86.6024 40.1953 85.4984 42.158C84.4251 44.1207 82.9531 45.6847 81.0824 46.85C79.2117 47.9847 77.0804 48.552 74.6884 48.552ZM74.1824 43.722C75.6544 43.722 76.9577 43.3693 78.0924 42.664C79.2271 41.9587 80.1164 40.9927 80.7604 39.766C81.4351 38.5087 81.7724 37.098 81.7724 35.534C81.7724 33.97 81.4351 32.5747 80.7604 31.348C80.1164 30.1213 79.2271 29.1553 78.0924 28.45C76.9577 27.7447 75.6544 27.392 74.1824 27.392C72.7411 27.392 71.4377 27.7447 70.2724 28.45C69.1377 29.1553 68.2331 30.1213 67.5584 31.348C66.9144 32.5747 66.5924 33.97 66.5924 35.534C66.5924 37.098 66.9144 38.5087 67.5584 39.766C68.2331 40.9927 69.1377 41.9587 70.2724 42.664C71.4377 43.3693 72.7411 43.722 74.1824 43.722ZM103.895 48.552C101.411 48.552 99.2028 47.9847 97.2708 46.85C95.3695 45.6847 93.8821 44.1207 92.8088 42.158C91.7355 40.1647 91.1988 37.9413 91.1988 35.488C91.1988 32.9733 91.7355 30.75 92.8088 28.818C93.9128 26.886 95.3848 25.368 97.2248 24.264C99.0648 23.1293 101.15 22.562 103.481 22.562C105.351 22.562 107.023 22.884 108.495 23.528C109.967 24.172 111.209 25.0613 112.221 26.196C113.233 27.3 113.999 28.5727 114.521 30.014C115.073 31.4553 115.349 32.9887 115.349 34.614C115.349 35.0127 115.333 35.4267 115.303 35.856C115.272 36.2853 115.211 36.684 115.119 37.052H95.2928V32.912H112.175L109.691 34.798C109.997 33.2953 109.89 31.9613 109.369 30.796C108.878 29.6 108.111 28.6647 107.069 27.99C106.057 27.2847 104.861 26.932 103.481 26.932C102.101 26.932 100.874 27.2847 99.8008 27.99C98.7275 28.6647 97.8995 29.646 97.3168 30.934C96.7341 32.1913 96.5041 33.7247 96.6268 35.534C96.4735 37.2207 96.7035 38.6927 97.3168 39.95C97.9608 41.2073 98.8501 42.1887 99.9848 42.894C101.15 43.5993 102.469 43.952 103.941 43.952C105.443 43.952 106.716 43.6147 107.759 42.94C108.832 42.2653 109.675 41.3913 110.289 40.318L114.521 42.388C114.03 43.5533 113.263 44.6113 112.221 45.562C111.209 46.482 109.982 47.218 108.541 47.77C107.13 48.2913 105.581 48.552 103.895 48.552ZM127 48V18.56H117.892V13.73H141.352V18.56H132.382V48H127ZM142.164 48V23.114H147.132V28.128L146.672 27.392C147.224 25.7667 148.113 24.6013 149.34 23.896C150.567 23.16 152.039 22.792 153.756 22.792H155.274V27.53H153.112C151.395 27.53 149.999 28.0667 148.926 29.14C147.883 30.1827 147.362 31.6853 147.362 33.648V48H142.164ZM166.282 48.552C164.595 48.552 163.108 48.2607 161.82 47.678C160.563 47.0647 159.581 46.2367 158.876 45.194C158.171 44.1207 157.818 42.8633 157.818 41.422C157.818 40.0727 158.109 38.8613 158.692 37.788C159.305 36.7147 160.241 35.81 161.498 35.074C162.755 34.338 164.335 33.8167 166.236 33.51L174.884 32.084V36.178L167.248 37.512C165.868 37.7573 164.856 38.202 164.212 38.846C163.568 39.4593 163.246 40.2567 163.246 41.238C163.246 42.1887 163.599 42.9707 164.304 43.584C165.04 44.1667 165.975 44.458 167.11 44.458C168.521 44.458 169.747 44.1513 170.79 43.538C171.863 42.9247 172.691 42.112 173.274 41.1C173.857 40.0573 174.148 38.9073 174.148 37.65V31.256C174.148 30.0293 173.688 29.0327 172.768 28.266C171.879 27.4687 170.683 27.07 169.18 27.07C167.8 27.07 166.589 27.438 165.546 28.174C164.534 28.8793 163.783 29.7993 163.292 30.934L158.968 28.772C159.428 27.5453 160.179 26.472 161.222 25.552C162.265 24.6013 163.476 23.8653 164.856 23.344C166.267 22.8227 167.754 22.562 169.318 22.562C171.281 22.562 173.013 22.93 174.516 23.666C176.049 24.402 177.23 25.4293 178.058 26.748C178.917 28.036 179.346 29.5387 179.346 31.256V48H174.378V43.492L175.436 43.63C174.853 44.642 174.102 45.516 173.182 46.252C172.293 46.988 171.265 47.5553 170.1 47.954C168.965 48.3527 167.693 48.552 166.282 48.552ZM185.424 48V23.114H190.622V48H185.424ZM185.424 19.71V13.73H190.622V19.71H185.424ZM196.699 48V23.114H201.667V27.99L201.069 27.346C201.682 25.782 202.664 24.6013 204.013 23.804C205.362 22.976 206.926 22.562 208.705 22.562C210.545 22.562 212.17 22.9607 213.581 23.758C214.992 24.5553 216.096 25.6593 216.893 27.07C217.69 28.4807 218.089 30.106 218.089 31.946V48H212.937V33.326C212.937 32.0687 212.707 31.0107 212.247 30.152C211.787 29.2627 211.128 28.588 210.269 28.128C209.441 27.6373 208.49 27.392 207.417 27.392C206.344 27.392 205.378 27.6373 204.519 28.128C203.691 28.588 203.047 29.2627 202.587 30.152C202.127 31.0413 201.897 32.0993 201.897 33.326V48H196.699Z" fill="white"/>
<path d="M61.8258 100.216C60.8898 100.216 60.0138 100.048 59.1978 99.712C58.3938 99.364 57.6858 98.884 57.0738 98.272C56.4618 97.648 55.9818 96.916 55.6338 96.076C55.2858 95.224 55.1118 94.294 55.1118 93.286C55.1118 92.278 55.2858 91.354 55.6338 90.514C55.9818 89.662 56.4618 88.93 57.0738 88.318C57.6858 87.694 58.3938 87.214 59.1978 86.878C60.0138 86.542 60.8898 86.374 61.8258 86.374C62.7618 86.374 63.6318 86.548 64.4358 86.896C65.2518 87.232 65.9658 87.712 66.5778 88.336C67.1898 88.948 67.6698 89.674 68.0178 90.514C68.3658 91.354 68.5398 92.278 68.5398 93.286C68.5398 94.294 68.3658 95.224 68.0178 96.076C67.6698 96.916 67.1898 97.648 66.5778 98.272C65.9658 98.884 65.2518 99.364 64.4358 99.712C63.6318 100.048 62.7618 100.216 61.8258 100.216ZM61.8258 98.866C62.6058 98.866 63.3138 98.722 63.9498 98.434C64.5978 98.146 65.1558 97.744 65.6238 97.228C66.0918 96.712 66.4518 96.118 66.7038 95.446C66.9678 94.774 67.0998 94.054 67.0998 93.286C67.0998 92.53 66.9678 91.816 66.7038 91.144C66.4518 90.472 66.0918 89.878 65.6238 89.362C65.1558 88.846 64.5978 88.444 63.9498 88.156C63.3138 87.868 62.6058 87.724 61.8258 87.724C61.0458 87.724 60.3318 87.868 59.6838 88.156C59.0478 88.444 58.4958 88.846 58.0278 89.362C57.5598 89.878 57.1938 90.472 56.9298 91.144C56.6778 91.816 56.5518 92.53 56.5518 93.286C56.5518 94.054 56.6778 94.774 56.9298 95.446C57.1938 96.118 57.5598 96.712 58.0278 97.228C58.4958 97.744 59.0538 98.146 59.7018 98.434C60.3498 98.722 61.0578 98.866 61.8258 98.866ZM71.1126 100V90.352H72.4626V91.936L72.2826 91.702C72.5106 91.246 72.8526 90.886 73.3086 90.622C73.7766 90.358 74.3406 90.226 75.0006 90.226H75.6126V91.576H74.7666C74.0706 91.576 73.5126 91.792 73.0926 92.224C72.6726 92.656 72.4626 93.268 72.4626 94.06V100H71.1126ZM81.7666 103.96C81.1066 103.96 80.4946 103.858 79.9306 103.654C79.3786 103.45 78.8986 103.168 78.4906 102.808C78.0946 102.46 77.7886 102.052 77.5726 101.584L78.8146 100.918C79.0066 101.374 79.3486 101.77 79.8406 102.106C80.3326 102.442 80.9626 102.61 81.7306 102.61C82.3186 102.61 82.8586 102.496 83.3506 102.268C83.8426 102.04 84.2386 101.704 84.5386 101.26C84.8386 100.816 84.9886 100.27 84.9886 99.622V97.48L85.2046 97.678C84.8686 98.374 84.3706 98.914 83.7106 99.298C83.0506 99.67 82.3306 99.856 81.5506 99.856C80.6506 99.856 79.8406 99.64 79.1206 99.208C78.4006 98.776 77.8306 98.194 77.4106 97.462C77.0026 96.718 76.7986 95.896 76.7986 94.996C76.7986 94.084 77.0026 93.262 77.4106 92.53C77.8306 91.798 78.3946 91.216 79.1026 90.784C79.8226 90.352 80.6386 90.136 81.5506 90.136C82.3306 90.136 83.0386 90.316 83.6746 90.676C84.3226 91.036 84.8326 91.522 85.2046 92.134L84.9886 92.512V90.352H86.3386V99.622C86.3386 100.45 86.1406 101.188 85.7446 101.836C85.3606 102.496 84.8206 103.012 84.1246 103.384C83.4406 103.768 82.6546 103.96 81.7666 103.96ZM81.6226 98.506C82.2466 98.506 82.8106 98.35 83.3146 98.038C83.8186 97.714 84.2206 97.288 84.5206 96.76C84.8326 96.22 84.9886 95.632 84.9886 94.996C84.9886 94.36 84.8326 93.778 84.5206 93.25C84.2206 92.71 83.8186 92.284 83.3146 91.972C82.8106 91.648 82.2466 91.486 81.6226 91.486C80.9866 91.486 80.4106 91.648 79.8946 91.972C79.3786 92.284 78.9706 92.704 78.6706 93.232C78.3826 93.76 78.2386 94.348 78.2386 94.996C78.2386 95.632 78.3826 96.22 78.6706 96.76C78.9706 97.288 79.3726 97.714 79.8766 98.038C80.3926 98.35 80.9746 98.506 81.6226 98.506ZM91.9026 100.216C91.2906 100.216 90.7446 100.102 90.2646 99.874C89.7846 99.634 89.4066 99.31 89.1306 98.902C88.8546 98.494 88.7166 98.026 88.7166 97.498C88.7166 96.994 88.8246 96.538 89.0406 96.13C89.2566 95.71 89.5926 95.356 90.0486 95.068C90.5046 94.78 91.0866 94.576 91.7946 94.456L95.5746 93.826V95.05L92.1186 95.626C91.4226 95.746 90.9186 95.968 90.6066 96.292C90.3066 96.616 90.1566 97 90.1566 97.444C90.1566 97.876 90.3246 98.242 90.6606 98.542C91.0086 98.842 91.4526 98.992 91.9926 98.992C92.6526 98.992 93.2286 98.854 93.7206 98.578C94.2126 98.29 94.5966 97.906 94.8726 97.426C95.1486 96.946 95.2866 96.412 95.2866 95.824V93.376C95.2866 92.8 95.0766 92.332 94.6566 91.972C94.2366 91.612 93.6906 91.432 93.0186 91.432C92.4306 91.432 91.9146 91.582 91.4706 91.882C91.0266 92.17 90.6966 92.548 90.4806 93.016L89.2566 92.35C89.4366 91.942 89.7186 91.57 90.1026 91.234C90.4986 90.898 90.9486 90.634 91.4526 90.442C91.9566 90.238 92.4786 90.136 93.0186 90.136C93.7266 90.136 94.3506 90.274 94.8906 90.55C95.4426 90.826 95.8686 91.21 96.1686 91.702C96.4806 92.182 96.6366 92.74 96.6366 93.376V100H95.2866V98.074L95.4846 98.272C95.3166 98.632 95.0526 98.962 94.6926 99.262C94.3446 99.55 93.9306 99.784 93.4506 99.964C92.9826 100.132 92.4666 100.216 91.9026 100.216ZM99.4133 100V90.352H100.763V92.224L100.457 92.152C100.697 91.528 101.087 91.036 101.627 90.676C102.179 90.316 102.815 90.136 103.535 90.136C104.219 90.136 104.831 90.292 105.371 90.604C105.923 90.916 106.355 91.348 106.667 91.9C106.991 92.44 107.153 93.052 107.153 93.736V100H105.803V94.258C105.803 93.67 105.695 93.172 105.479 92.764C105.275 92.356 104.981 92.044 104.597 91.828C104.225 91.6 103.793 91.486 103.301 91.486C102.809 91.486 102.371 91.6 101.987 91.828C101.603 92.044 101.303 92.362 101.087 92.782C100.871 93.19 100.763 93.682 100.763 94.258V100H99.4133ZM109.732 100V90.352H111.082V100H109.732ZM109.732 88.57V86.59H111.082V88.57H109.732ZM112.855 100V98.83L118.669 91.18L118.921 91.702H113.161V90.352H120.109V91.522L114.313 99.172L114.061 98.65H120.145V100H112.855ZM126.323 100.216C125.423 100.216 124.607 100 123.875 99.568C123.155 99.124 122.585 98.518 122.165 97.75C121.745 96.982 121.535 96.112 121.535 95.14C121.535 94.168 121.739 93.31 122.147 92.566C122.555 91.81 123.107 91.216 123.803 90.784C124.511 90.352 125.303 90.136 126.179 90.136C126.875 90.136 127.493 90.268 128.033 90.532C128.585 90.784 129.053 91.132 129.437 91.576C129.821 92.008 130.115 92.5 130.319 93.052C130.523 93.592 130.625 94.15 130.625 94.726C130.625 94.846 130.619 94.984 130.607 95.14C130.595 95.284 130.577 95.434 130.553 95.59H122.399V94.33H129.779L129.131 94.87C129.239 94.21 129.161 93.622 128.897 93.106C128.645 92.578 128.279 92.164 127.799 91.864C127.319 91.552 126.779 91.396 126.179 91.396C125.579 91.396 125.021 91.552 124.505 91.864C124.001 92.176 123.605 92.614 123.317 93.178C123.029 93.73 122.915 94.39 122.975 95.158C122.915 95.926 123.035 96.598 123.335 97.174C123.647 97.738 124.067 98.176 124.595 98.488C125.135 98.8 125.711 98.956 126.323 98.956C127.031 98.956 127.625 98.788 128.105 98.452C128.585 98.116 128.975 97.696 129.275 97.192L130.427 97.804C130.235 98.236 129.941 98.638 129.545 99.01C129.149 99.37 128.675 99.664 128.123 99.892C127.583 100.108 126.983 100.216 126.323 100.216ZM137.361 100.216C136.461 100.216 135.651 100 134.931 99.568C134.211 99.124 133.641 98.524 133.221 97.768C132.813 97 132.609 96.136 132.609 95.176C132.609 94.204 132.813 93.34 133.221 92.584C133.641 91.828 134.205 91.234 134.913 90.802C135.633 90.358 136.449 90.136 137.361 90.136C138.189 90.136 138.927 90.316 139.575 90.676C140.223 91.036 140.733 91.522 141.105 92.134L140.889 92.512V86.374H142.239V100H140.889V97.84L141.105 98.038C140.769 98.734 140.265 99.274 139.593 99.658C138.933 100.03 138.189 100.216 137.361 100.216ZM137.433 98.866C138.081 98.866 138.663 98.704 139.179 98.38C139.707 98.056 140.121 97.618 140.421 97.066C140.733 96.502 140.889 95.872 140.889 95.176C140.889 94.48 140.733 93.856 140.421 93.304C140.121 92.74 139.707 92.296 139.179 91.972C138.663 91.648 138.081 91.486 137.433 91.486C136.797 91.486 136.221 91.648 135.705 91.972C135.189 92.296 134.781 92.734 134.481 93.286C134.193 93.838 134.049 94.468 134.049 95.176C134.049 95.872 134.193 96.502 134.481 97.066C134.781 97.618 135.183 98.056 135.687 98.38C136.203 98.704 136.785 98.866 137.433 98.866ZM152.948 100.216C152.12 100.216 151.37 100.03 150.698 99.658C150.038 99.274 149.54 98.734 149.204 98.038L149.42 97.84V100H148.07V86.374H149.42V92.512L149.204 92.134C149.588 91.522 150.098 91.036 150.734 90.676C151.382 90.316 152.12 90.136 152.948 90.136C153.86 90.136 154.67 90.358 155.378 90.802C156.098 91.234 156.662 91.828 157.07 92.584C157.49 93.34 157.7 94.204 157.7 95.176C157.7 96.136 157.49 97 157.07 97.768C156.662 98.524 156.098 99.124 155.378 99.568C154.67 100 153.86 100.216 152.948 100.216ZM152.876 98.866C153.524 98.866 154.1 98.704 154.604 98.38C155.12 98.056 155.522 97.618 155.81 97.066C156.11 96.502 156.26 95.872 156.26 95.176C156.26 94.468 156.11 93.838 155.81 93.286C155.522 92.734 155.12 92.296 154.604 91.972C154.1 91.648 153.524 91.486 152.876 91.486C152.228 91.486 151.64 91.648 151.112 91.972C150.596 92.296 150.182 92.74 149.87 93.304C149.57 93.856 149.42 94.48 149.42 95.176C149.42 95.872 149.57 96.502 149.87 97.066C150.182 97.618 150.596 98.056 151.112 98.38C151.64 98.704 152.228 98.866 152.876 98.866ZM160.098 103.96C159.906 103.96 159.708 103.942 159.504 103.906C159.312 103.882 159.12 103.834 158.928 103.762V102.502C159.048 102.514 159.198 102.532 159.378 102.556C159.57 102.592 159.762 102.61 159.954 102.61C160.542 102.61 160.992 102.484 161.304 102.232C161.616 101.992 161.922 101.524 162.222 100.828L162.834 99.388L162.798 100.576L158.712 90.352H160.17L163.518 98.794H163.14L166.47 90.352H167.964L163.554 101.224C163.362 101.692 163.116 102.136 162.816 102.556C162.528 102.976 162.162 103.312 161.718 103.564C161.274 103.828 160.734 103.96 160.098 103.96Z" fill="white"/>
<path d="M66.3753 155.181C65.709 155.181 65.1338 154.977 64.6474 154.568C64.161 154.159 63.9189 153.697 63.9189 153.187V120.799C63.9189 120.186 64.161 119.713 64.6474 119.38C65.1338 119.049 65.709 118.88 66.3753 118.88C67.0415 118.88 67.6034 119.047 68.0632 119.38C68.5229 119.713 68.7539 120.186 68.7539 120.799V124.559C69.3158 123.484 70.0842 122.487 71.057 121.565C72.0275 120.644 73.1801 119.891 74.5105 119.302C75.8408 118.714 77.351 118.42 79.0389 118.42H81.724C82.2859 118.42 82.7612 118.651 83.1432 119.111C83.5274 119.571 83.7184 120.108 83.7184 120.723C83.7184 121.39 83.5274 121.938 83.1432 122.374C82.7589 122.809 82.2859 123.027 81.724 123.027H79.0389C77.351 123.027 75.7253 123.486 74.1662 124.408C72.6049 125.33 71.339 126.609 70.3685 128.246C69.3957 129.883 68.9093 131.879 68.9093 134.231V153.187C68.9093 153.697 68.665 154.159 68.1809 154.568C67.6945 154.979 67.0926 155.181 66.3775 155.181H66.3753Z" fill="#CF26A0"/>
<path d="M102.83 155.718C99.6077 155.718 96.7538 155.105 94.273 153.877C91.7901 152.649 89.8468 150.948 88.4409 148.774C87.0329 146.599 86.3311 144.054 86.3311 141.138V132.619C86.3311 130.06 86.9951 127.695 88.3254 125.521C89.6558 123.346 91.4347 121.621 93.6601 120.339C95.8854 119.06 98.3284 118.42 100.989 118.42C103.65 118.42 105.913 119.022 108.087 120.224C110.261 121.428 112.014 123.078 113.344 125.174C114.674 127.273 115.338 129.703 115.338 132.465C115.338 134.411 115.005 135.817 114.341 136.687C113.675 137.558 112.844 138.082 111.847 138.26C110.85 138.44 109.786 138.529 108.662 138.529H91.317V141.367C91.317 144.436 92.4164 146.868 94.6173 148.658C96.816 150.45 99.6054 151.343 102.983 151.343C105.029 151.343 106.615 151.088 107.741 150.575C108.864 150.064 109.748 149.551 110.388 149.04C111.028 148.529 111.627 148.272 112.191 148.272C112.6 148.272 112.971 148.414 113.304 148.694C113.637 148.976 113.893 149.296 114.072 149.653C114.25 150.011 114.341 150.344 114.341 150.65C114.341 151.214 113.881 151.905 112.96 152.722C112.038 153.542 110.708 154.246 108.969 154.832C107.23 155.421 105.182 155.714 102.83 155.714V155.718ZM91.3192 134.844H106.668C108.203 134.844 109.226 134.68 109.737 134.344C110.248 134.011 110.506 133.307 110.506 132.234C110.506 130.598 110.095 129.05 109.278 127.591C108.458 126.131 107.332 124.93 105.902 123.984C104.469 123.038 102.806 122.565 100.914 122.565C99.1746 122.565 97.5755 123 96.1164 123.868C94.6573 124.739 93.4935 125.865 92.6251 127.246C91.7545 128.628 91.3214 130.189 91.3214 131.928V134.844H91.3192Z" fill="#CF26A0"/>
<path d="M125.239 155.181C124.572 155.181 123.997 154.977 123.511 154.568C123.024 154.159 122.782 153.697 122.782 153.187V120.799C122.782 120.186 123.024 119.713 123.511 119.38C123.997 119.049 124.572 118.88 125.239 118.88C125.905 118.88 126.467 119.047 126.926 119.38C127.386 119.713 127.617 120.186 127.617 120.799V124.253C128.434 122.769 129.714 121.425 131.455 120.224C133.194 119.022 135.341 118.42 137.902 118.42C140.463 118.42 142.622 119.073 144.694 120.377C146.766 121.681 148.416 123.422 149.644 125.596C150.872 127.77 151.485 130.189 151.485 132.85V153.187C151.485 153.853 151.228 154.35 150.717 154.683C150.204 155.017 149.615 155.183 148.951 155.183C148.387 155.183 147.839 155.019 147.301 154.683C146.764 154.35 146.495 153.853 146.495 153.187V132.85C146.495 131.162 146.06 129.576 145.189 128.092C144.318 126.609 143.168 125.394 141.735 124.448C140.303 123.502 138.715 123.029 136.976 123.029C135.441 123.029 133.969 123.426 132.563 124.219C131.155 125.012 130.005 126.127 129.11 127.557C128.215 128.99 127.766 130.755 127.766 132.852V153.189C127.766 153.7 127.522 154.162 127.038 154.57C126.551 154.981 125.949 155.183 125.234 155.183L125.239 155.181Z" fill="#CF26A0"/>
<path d="M168.753 155.718C165.837 155.718 163.367 154.888 161.346 153.224C159.325 151.563 158.314 149.015 158.314 145.589C158.314 142.775 159.07 140.614 160.578 139.103C162.086 137.595 164.184 136.545 166.872 135.956C169.557 135.368 172.666 135.075 176.197 135.075H180.11V133.309C180.11 131.621 179.815 129.971 179.229 128.359C178.64 126.746 177.694 125.418 176.388 124.368C175.082 123.319 173.306 122.795 171.054 122.795C169.366 122.795 167.984 122.975 166.909 123.333C165.834 123.69 164.991 124.061 164.378 124.445C163.765 124.83 163.252 125.021 162.843 125.021C162.23 125.021 161.73 124.714 161.346 124.099C160.962 123.486 160.771 122.922 160.771 122.411C160.771 121.696 161.308 121.043 162.383 120.454C163.458 119.866 164.802 119.38 166.412 118.998C168.024 118.613 169.621 118.422 171.209 118.422C174.636 118.422 177.361 119.126 179.382 120.532C181.403 121.94 182.86 123.768 183.757 126.02C184.652 128.272 185.101 130.677 185.101 133.234V153.189C185.101 153.753 184.883 154.226 184.448 154.608C184.013 154.992 183.411 155.183 182.645 155.183C182.032 155.183 181.481 154.992 180.994 154.608C180.508 154.223 180.266 153.75 180.266 153.189V149.813C178.987 151.347 177.401 152.718 175.509 153.919C173.614 155.121 171.365 155.723 168.755 155.723L168.753 155.718ZM169.981 151.498C171.669 151.498 173.281 151.063 174.816 150.195C176.35 149.324 177.616 148.265 178.616 147.01C179.613 145.757 180.113 144.567 180.113 143.441V138.53H176.89C174.587 138.53 172.399 138.673 170.327 138.952C168.255 139.235 166.567 139.834 165.261 140.756C163.956 141.678 163.305 143.134 163.305 145.131C163.305 147.332 163.958 148.942 165.261 149.966C166.565 150.99 168.14 151.501 169.981 151.501V151.498Z" fill="#CF26A0"/>
<path d="M207.508 155.718C204.899 155.718 202.482 155.041 200.257 153.684C198.032 152.329 196.253 150.537 194.922 148.312C193.592 146.086 192.926 143.694 192.926 141.136V132.847C192.926 130.289 193.579 127.91 194.882 125.709C196.186 123.511 197.952 121.745 200.177 120.415C202.402 119.084 204.845 118.42 207.506 118.42C210.167 118.42 212.532 119.073 214.76 120.377C216.985 121.681 218.762 123.422 220.094 125.596C221.425 127.77 222.089 130.189 222.089 132.85V141.138C222.089 143.646 221.422 146.024 220.094 148.276C218.764 150.528 216.985 152.332 214.76 153.686C212.534 155.043 210.116 155.721 207.506 155.721L207.508 155.718ZM207.508 151.114C209.298 151.114 210.911 150.641 212.343 149.695C213.776 148.749 214.926 147.508 215.797 145.973C216.665 144.438 217.1 142.826 217.1 141.138V132.85C217.1 131.162 216.678 129.576 215.834 128.092C214.991 126.609 213.838 125.394 212.381 124.448C210.922 123.502 209.298 123.029 207.508 123.029C205.718 123.029 204.106 123.502 202.673 124.448C201.241 125.394 200.088 126.609 199.22 128.092C198.349 129.576 197.914 131.162 197.914 132.85V141.138C197.914 142.826 198.336 144.438 199.18 145.973C200.024 147.508 201.188 148.749 202.671 149.695C204.155 150.641 205.767 151.114 207.506 151.114H207.508Z" fill="#CF26A0"/>
<path d="M25.704 152.606C33.6522 152.606 40.0955 146.163 40.0955 138.215C40.0955 130.267 33.6522 123.823 25.704 123.823C17.7558 123.823 11.3125 130.267 11.3125 138.215C11.3125 146.163 17.7558 152.606 25.704 152.606Z" fill="#ECA8D9"/>
<path d="M37.5553 138.215C37.5553 131.669 32.2489 126.363 25.7032 126.363C19.1576 126.363 13.8512 131.669 13.8511 138.215C13.8511 144.761 19.1575 150.067 25.7032 150.067C32.2489 150.067 37.5553 144.761 37.5553 138.215ZM42.6343 138.215C42.6343 147.566 35.0539 155.146 25.7032 155.146C16.3526 155.146 8.77246 147.566 8.77246 138.215C8.77251 128.864 16.3526 121.284 25.7032 121.284C35.0539 121.284 42.6343 128.864 42.6343 138.215Z" fill="#CF26A0"/>
<path d="M37.6671 125.316C38.2912 119.777 34.9665 114.38 29.4586 112.59C23.1646 110.545 16.4063 113.992 14.3609 120.283C13.7701 122.105 13.6368 123.963 13.9011 125.736" fill="#CF26A0"/>
<path d="M8.31303 142.013C4.55303 146.126 4.07109 152.449 7.47353 157.133C11.3646 162.485 18.8557 163.673 24.2103 159.782C25.7583 158.656 26.9576 157.23 27.7882 155.642" fill="#CF26A0"/>
<path d="M26.7547 124.041C26.7547 123.46 26.2842 122.99 25.7037 122.99C25.1232 122.99 24.6526 123.46 24.6526 124.041C24.6526 124.621 25.1232 125.092 25.7037 125.092C26.2842 125.092 26.7547 124.621 26.7547 124.041ZM28.7658 124.041C28.7658 125.732 27.3948 127.103 25.7037 127.103C24.0126 127.103 22.6416 125.732 22.6416 124.041C22.6416 122.349 24.0126 120.979 25.7037 120.979C27.3948 120.979 28.7658 122.349 28.7658 124.041Z" fill="#CF26A0"/>
<path d="M13.0682 133.986C13.0682 133.405 12.5977 132.935 12.0172 132.935C11.4366 132.935 10.9661 133.405 10.9661 133.986C10.9661 134.566 11.4366 135.037 12.0172 135.037C12.5977 135.037 13.0682 134.566 13.0682 133.986ZM15.0792 133.986C15.0792 135.677 13.7083 137.048 12.0172 137.048C10.3261 137.048 8.95508 135.677 8.95508 133.986C8.95508 132.295 10.3261 130.924 12.0172 130.924C13.7083 130.924 15.0792 132.295 15.0792 133.986Z" fill="#CF26A0"/>
<path d="M18.2957 150.077C18.2957 149.496 17.8252 149.026 17.2447 149.026C16.6642 149.026 16.1937 149.496 16.1936 150.077C16.1936 150.657 16.6642 151.128 17.2447 151.128C17.8252 151.128 18.2957 150.657 18.2957 150.077ZM20.3068 150.077C20.3068 151.768 18.9358 153.139 17.2447 153.139C15.5536 153.139 14.1826 151.768 14.1826 150.077C14.1826 148.386 15.5536 147.015 17.2447 147.015C18.9358 147.015 20.3068 148.386 20.3068 150.077Z" fill="#CF26A0"/>
<path d="M35.2147 150.077C35.2147 149.496 34.7442 149.026 34.1636 149.026C33.5831 149.026 33.1126 149.496 33.1126 150.077C33.1126 150.657 33.5831 151.128 34.1636 151.128C34.7442 151.128 35.2147 150.657 35.2147 150.077ZM37.2257 150.077C37.2257 151.768 35.8547 153.139 34.1636 153.139C32.4725 153.139 31.1016 151.768 31.1016 150.077C31.1016 148.386 32.4725 147.015 34.1636 147.015C35.8547 147.015 37.2257 148.386 37.2257 150.077Z" fill="#CF26A0"/>
<path d="M51.442 134.019C51.442 127.401 46.0763 122.037 39.4602 122.037C38.8294 122.037 38.212 122.091 37.6079 122.184C36.9461 117.849 33.919 114.036 29.4616 112.59C23.1676 110.544 16.4093 113.991 14.3639 120.283C14.1684 120.883 14.0285 121.489 13.9308 122.093C9.60224 121.382 5.04271 123.083 2.28878 126.875C-1.60003 132.229 -0.414066 139.723 4.94055 143.611C5.45136 143.982 5.98216 144.302 6.52628 144.582C4.51414 148.48 4.7229 153.341 7.47683 157.132C11.3679 162.485 18.859 163.673 24.2136 159.782C24.7244 159.411 25.193 159.005 25.6261 158.574C28.711 161.692 33.3993 162.995 37.8567 161.547C44.1507 159.502 47.5932 152.742 45.5477 146.45C45.3523 145.85 45.1102 145.279 44.8348 144.733C48.7547 142.763 51.4442 138.705 51.442 134.021V134.019ZM25.9437 151.234L13.913 142.814L18.2016 128.771L32.8818 128.511L37.6657 142.394L25.9415 151.234H25.9437Z" fill="#CF26A0"/>
<path d="M25.7036 132.501C30.3756 132.501 34.163 128.714 34.163 124.041C34.163 119.369 30.3756 115.582 25.7036 115.582C21.0316 115.582 17.2441 119.369 17.2441 124.041C17.2441 128.714 21.0316 132.501 25.7036 132.501Z" fill="white"/>
<path d="M33.1582 124.041C33.1582 119.924 29.821 116.587 25.7042 116.587C21.5875 116.587 18.2503 119.924 18.2503 124.041C18.2503 128.158 21.5875 131.495 25.7042 131.495C29.821 131.495 33.1582 128.158 33.1582 124.041ZM35.1692 124.041C35.1692 129.268 30.9315 133.506 25.7042 133.506C20.4769 133.506 16.2393 129.268 16.2393 124.041C16.2393 118.814 20.4769 114.576 25.7042 114.576C30.9316 114.576 35.1692 118.814 35.1692 124.041Z" fill="#CF26A0"/>
<path d="M12.0171 142.446C16.6891 142.446 20.4765 138.658 20.4765 133.986C20.4765 129.314 16.6891 125.527 12.0171 125.527C7.34504 125.527 3.55762 129.314 3.55762 133.986C3.55762 138.658 7.34504 142.446 12.0171 142.446Z" fill="white"/>
<path d="M19.4707 133.986C19.4707 129.87 16.1335 126.533 12.0167 126.533C7.90001 126.533 4.56279 129.87 4.56279 133.986C4.5628 138.103 7.90002 141.44 12.0167 141.44C16.1335 141.44 19.4707 138.103 19.4707 133.986ZM21.4817 133.986C21.4817 139.214 17.244 143.451 12.0167 143.451C6.78943 143.451 2.55177 139.214 2.55176 133.986C2.55176 128.759 6.78942 124.521 12.0167 124.521C17.2441 124.521 21.4817 128.759 21.4817 133.986Z" fill="#CF26A0"/>
<path d="M17.2446 158.537C21.9166 158.537 25.7041 154.749 25.7041 150.077C25.7041 145.405 21.9166 141.618 17.2446 141.618C12.5726 141.618 8.78516 145.405 8.78516 150.077C8.78516 154.749 12.5726 158.537 17.2446 158.537Z" fill="white"/>
<path d="M24.6982 150.077C24.6982 145.96 21.361 142.623 17.2443 142.623C13.1275 142.623 9.79033 145.96 9.79033 150.077C9.79034 154.194 13.1276 157.531 17.2443 157.531C21.361 157.531 24.6982 154.194 24.6982 150.077ZM26.7093 150.077C26.7093 155.304 22.4716 159.542 17.2443 159.542C12.017 159.542 7.77931 155.304 7.7793 150.077C7.7793 144.849 12.017 140.612 17.2443 140.612C22.4716 140.612 26.7093 144.849 26.7093 150.077Z" fill="#CF26A0"/>
<path d="M34.1636 158.537C38.8356 158.537 42.623 154.749 42.623 150.077C42.623 145.405 38.8356 141.618 34.1636 141.618C29.4915 141.618 25.7041 145.405 25.7041 150.077C25.7041 154.749 29.4915 158.537 34.1636 158.537Z" fill="white"/>
<path d="M41.6172 150.077C41.6172 145.96 38.28 142.623 34.1632 142.623C30.0465 142.623 26.7093 145.96 26.7093 150.077C26.7093 154.194 30.0465 157.531 34.1632 157.531C38.2799 157.531 41.6172 154.194 41.6172 150.077ZM43.6282 150.077C43.6282 155.304 39.3905 159.542 34.1632 159.542C28.9359 159.542 24.6983 155.304 24.6982 150.077C24.6982 144.849 28.9359 140.612 34.1632 140.612C39.3905 140.612 43.6282 144.849 43.6282 150.077Z" fill="#CF26A0"/>
<path d="M39.3911 142.446C44.0631 142.446 47.8505 138.658 47.8505 133.986C47.8505 129.314 44.0631 125.527 39.3911 125.527C34.7191 125.527 30.9316 129.314 30.9316 133.986C30.9316 138.658 34.7191 142.446 39.3911 142.446Z" fill="white"/>
<path d="M46.8447 133.986C46.8447 129.87 43.5075 126.533 39.3908 126.533C35.274 126.533 31.9368 129.87 31.9368 133.986C31.9368 138.103 35.274 141.44 39.3908 141.44C43.5075 141.44 46.8447 138.103 46.8447 133.986ZM48.8558 133.986C48.8557 139.214 44.6181 143.451 39.3908 143.451C34.1635 143.451 29.9258 139.214 29.9258 133.986C29.9258 128.759 34.1634 124.521 39.3908 124.521C44.6181 124.521 48.8558 128.759 48.8558 133.986Z" fill="#CF26A0"/>
<path d="M24.6982 125.147H26.7093V138.432H24.6982V125.147Z" fill="#CF26A0"/>
<path d="M30.7482 143.662V143.663L34.9771 149.486L33.3497 150.668L29.1212 144.844V144.844L24.8906 139.024L26.5172 137.841L30.7482 143.662Z" fill="#CF26A0"/>
<path d="M26.0151 137.476L25.3937 139.389L11.7061 134.943L12.3275 133.03L26.0151 137.476Z" fill="#CF26A0"/>
<path d="M39.7026 134.943L32.8597 137.166L26.015 139.389L25.3936 137.476L39.0812 133.03L39.7026 134.943Z" fill="#CF26A0"/>
<path d="M26.5168 139.024L18.0573 150.668L16.4307 149.486L24.8901 137.842L26.5168 139.024Z" fill="#CF26A0"/>
<path d="M39.3915 136.043C40.5273 136.043 41.4481 135.122 41.4481 133.986C41.4481 132.85 40.5273 131.93 39.3915 131.93C38.2557 131.93 37.335 132.85 37.335 133.986C37.335 135.122 38.2557 136.043 39.3915 136.043Z" fill="white"/>
<path d="M40.4422 133.986C40.4422 133.405 39.9717 132.935 39.3912 132.935C38.8107 132.935 38.3401 133.405 38.3401 133.986C38.3401 134.566 38.8107 135.037 39.3912 135.037C39.9717 135.037 40.4422 134.566 40.4422 133.986ZM42.4533 133.986C42.4533 135.677 41.0823 137.048 39.3912 137.048C37.7001 137.048 36.3291 135.677 36.3291 133.986C36.3291 132.295 37.7001 130.924 39.3912 130.924C41.0823 130.924 42.4533 132.295 42.4533 133.986Z" fill="#CF26A0"/>
<path d="M25.703 126.098C26.8389 126.098 27.7596 125.177 27.7596 124.041C27.7596 122.905 26.8389 121.984 25.703 121.984C24.5672 121.984 23.6465 122.905 23.6465 124.041C23.6465 125.177 24.5672 126.098 25.703 126.098Z" fill="white"/>
<path d="M26.7547 124.041C26.7547 123.46 26.2842 122.99 25.7037 122.99C25.1232 122.99 24.6526 123.46 24.6526 124.041C24.6526 124.621 25.1232 125.092 25.7037 125.092C26.2842 125.092 26.7547 124.621 26.7547 124.041ZM28.7658 124.041C28.7658 125.732 27.3948 127.103 25.7037 127.103C24.0126 127.103 22.6416 125.732 22.6416 124.041C22.6416 122.349 24.0126 120.979 25.7037 120.979C27.3948 120.979 28.7658 122.349 28.7658 124.041Z" fill="#CF26A0"/>
<path d="M12.0165 136.043C13.1523 136.043 14.0731 135.122 14.0731 133.986C14.0731 132.85 13.1523 131.93 12.0165 131.93C10.8807 131.93 9.95996 132.85 9.95996 133.986C9.95996 135.122 10.8807 136.043 12.0165 136.043Z" fill="white"/>
<path d="M13.0682 133.986C13.0682 133.405 12.5977 132.935 12.0172 132.935C11.4366 132.935 10.9661 133.405 10.9661 133.986C10.9661 134.566 11.4366 135.037 12.0172 135.037C12.5977 135.037 13.0682 134.566 13.0682 133.986ZM15.0792 133.986C15.0792 135.677 13.7083 137.048 12.0172 137.048C10.3261 137.048 8.95508 135.677 8.95508 133.986C8.95508 132.295 10.3261 130.924 12.0172 130.924C13.7083 130.924 15.0792 132.295 15.0792 133.986Z" fill="#CF26A0"/>
<path d="M17.2441 152.134C18.3799 152.134 19.3006 151.213 19.3006 150.077C19.3006 148.941 18.3799 148.021 17.2441 148.021C16.1083 148.021 15.1875 148.941 15.1875 150.077C15.1875 151.213 16.1083 152.134 17.2441 152.134Z" fill="white"/>
<path d="M18.2957 150.077C18.2957 149.496 17.8252 149.026 17.2447 149.026C16.6642 149.026 16.1937 149.496 16.1936 150.077C16.1936 150.657 16.6642 151.128 17.2447 151.128C17.8252 151.128 18.2957 150.657 18.2957 150.077ZM20.3068 150.077C20.3068 151.768 18.9358 153.139 17.2447 153.139C15.5536 153.139 14.1826 151.768 14.1826 150.077C14.1826 148.386 15.5536 147.015 17.2447 147.015C18.9358 147.015 20.3068 148.386 20.3068 150.077Z" fill="#CF26A0"/>
<path d="M34.163 152.134C35.2988 152.134 36.2196 151.213 36.2196 150.077C36.2196 148.941 35.2988 148.021 34.163 148.021C33.0272 148.021 32.1064 148.941 32.1064 150.077C32.1064 151.213 33.0272 152.134 34.163 152.134Z" fill="white"/>
<path d="M35.2147 150.077C35.2147 149.496 34.7442 149.026 34.1636 149.026C33.5831 149.026 33.1126 149.496 33.1126 150.077C33.1126 150.657 33.5831 151.128 34.1636 151.128C34.7442 151.128 35.2147 150.657 35.2147 150.077ZM37.2257 150.077C37.2257 151.768 35.8547 153.139 34.1636 153.139C32.4725 153.139 31.1016 151.768 31.1016 150.077C31.1016 148.386 32.4725 147.015 34.1636 147.015C35.8547 147.015 37.2257 148.386 37.2257 150.077Z" fill="#CF26A0"/>
</svg>
