<svg xmlns="http://www.w3.org/2000/svg" class="w-full h-auto" viewBox="0 0 579 85" fill="none">
<path d="M5.082 68.5686V19.3986H12.87V46.0626L10.824 45.2706L33.066 19.3986H42.768L23.1 42.4326L23.496 36.8886L43.56 68.5686H34.386L19.998 46.0626L12.87 54.3786V68.5686H5.082ZM61.3733 69.3606C58.6893 69.3606 56.3353 68.7666 54.3113 67.5786C52.2873 66.3466 50.7033 64.6526 49.5593 62.4966C48.4593 60.2966 47.9093 57.7666 47.9093 54.9066V32.8626H55.3673V54.2466C55.3673 55.8746 55.6973 57.3046 56.3573 58.5366C57.0173 59.7686 57.9413 60.7366 59.1293 61.4406C60.3173 62.1006 61.6813 62.4306 63.2213 62.4306C64.8053 62.4306 66.1913 62.0786 67.3793 61.3746C68.5673 60.6706 69.4913 59.6806 70.1513 58.4046C70.8553 57.1286 71.2073 55.6326 71.2073 53.9166V32.8626H78.5993V68.5686H71.5373V61.5726L72.3293 62.4966C71.4933 64.6966 70.1073 66.3906 68.1713 67.5786C66.2353 68.7666 63.9693 69.3606 61.3733 69.3606ZM106.381 69.3606C103.609 69.3606 101.079 68.7886 98.7912 67.6446C96.5472 66.5006 94.8092 64.8506 93.5772 62.6946L94.4352 61.3086V68.5686H87.3072V18.6066H94.7652V40.2546L93.5772 38.5386C94.8972 36.5146 96.6572 34.9306 98.8572 33.7866C101.057 32.6426 103.565 32.0706 106.381 32.0706C109.769 32.0706 112.805 32.8846 115.489 34.5126C118.217 36.1406 120.351 38.3626 121.891 41.1786C123.475 43.9946 124.267 47.1626 124.267 50.6826C124.267 54.2026 123.475 57.3706 121.891 60.1866C120.351 63.0026 118.239 65.2466 115.555 66.9186C112.871 68.5466 109.813 69.3606 106.381 69.3606ZM105.655 62.4306C107.767 62.4306 109.637 61.9246 111.265 60.9126C112.893 59.9006 114.169 58.5146 115.093 56.7546C116.061 54.9506 116.545 52.9266 116.545 50.6826C116.545 48.4386 116.061 46.4366 115.093 44.6766C114.169 42.9166 112.893 41.5306 111.265 40.5186C109.637 39.5066 107.767 39.0006 105.655 39.0006C103.587 39.0006 101.717 39.5066 100.045 40.5186C98.4172 41.5306 97.1192 42.9166 96.1512 44.6766C95.2272 46.4366 94.7652 48.4386 94.7652 50.6826C94.7652 52.9266 95.2272 54.9506 96.1512 56.7546C97.1192 58.5146 98.4172 59.9006 100.045 60.9126C101.717 61.9246 103.587 62.4306 105.655 62.4306ZM148.286 69.3606C144.722 69.3606 141.554 68.5466 138.782 66.9186C136.054 65.2466 133.92 63.0026 132.38 60.1866C130.84 57.3266 130.07 54.1366 130.07 50.6166C130.07 47.0086 130.84 43.8186 132.38 41.0466C133.964 38.2746 136.076 36.0966 138.716 34.5126C141.356 32.8846 144.348 32.0706 147.692 32.0706C150.376 32.0706 152.774 32.5326 154.886 33.4566C156.998 34.3806 158.78 35.6566 160.232 37.2846C161.684 38.8686 162.784 40.6946 163.532 42.7626C164.324 44.8306 164.72 47.0306 164.72 49.3626C164.72 49.9346 164.698 50.5286 164.654 51.1446C164.61 51.7606 164.522 52.3326 164.39 52.8606H135.944V46.9206H160.166L156.602 49.6266C157.042 47.4706 156.888 45.5566 156.14 43.8846C155.436 42.1686 154.336 40.8266 152.84 39.8586C151.388 38.8466 149.672 38.3406 147.692 38.3406C145.712 38.3406 143.952 38.8466 142.412 39.8586C140.872 40.8266 139.684 42.2346 138.848 44.0826C138.012 45.8866 137.682 48.0866 137.858 50.6826C137.638 53.1026 137.968 55.2146 138.848 57.0186C139.772 58.8226 141.048 60.2306 142.676 61.2426C144.348 62.2546 146.24 62.7606 148.352 62.7606C150.508 62.7606 152.334 62.2766 153.83 61.3086C155.37 60.3406 156.58 59.0866 157.46 57.5466L163.532 60.5166C162.828 62.1886 161.728 63.7066 160.232 65.0706C158.78 66.3906 157.02 67.4466 154.952 68.2386C152.928 68.9866 150.706 69.3606 148.286 69.3606ZM181.437 68.5686V26.3286H168.369V19.3986H202.029V26.3286H189.159V68.5686H181.437ZM203.194 68.5686V32.8626H210.322V40.0566L209.662 39.0006C210.454 36.6686 211.73 34.9966 213.49 33.9846C215.25 32.9286 217.362 32.4006 219.826 32.4006H222.004V39.1986H218.902C216.438 39.1986 214.436 39.9686 212.896 41.5086C211.4 43.0046 210.652 45.1606 210.652 47.9766V68.5686H203.194ZM237.798 69.3606C235.378 69.3606 233.244 68.9426 231.396 68.1066C229.592 67.2266 228.184 66.0386 227.172 64.5426C226.16 63.0026 225.654 61.1986 225.654 59.1306C225.654 57.1946 226.072 55.4566 226.908 53.9166C227.788 52.3766 229.13 51.0786 230.934 50.0226C232.738 48.9666 235.004 48.2186 237.732 47.7786L250.14 45.7326V51.6066L239.184 53.5206C237.204 53.8726 235.752 54.5106 234.828 55.4346C233.904 56.3146 233.442 57.4586 233.442 58.8666C233.442 60.2306 233.948 61.3526 234.96 62.2326C236.016 63.0686 237.358 63.4866 238.986 63.4866C241.01 63.4866 242.77 63.0466 244.266 62.1666C245.806 61.2866 246.994 60.1206 247.83 58.6686C248.666 57.1726 249.084 55.5226 249.084 53.7186V44.5446C249.084 42.7846 248.424 41.3546 247.104 40.2546C245.828 39.1106 244.112 38.5386 241.956 38.5386C239.976 38.5386 238.238 39.0666 236.742 40.1226C235.29 41.1346 234.212 42.4546 233.508 44.0826L227.304 40.9806C227.964 39.2206 229.042 37.6806 230.538 36.3606C232.034 34.9966 233.772 33.9406 235.752 33.1926C237.776 32.4446 239.91 32.0706 242.154 32.0706C244.97 32.0706 247.456 32.5986 249.612 33.6546C251.812 34.7106 253.506 36.1846 254.694 38.0766C255.926 39.9246 256.542 42.0806 256.542 44.5446V68.5686H249.414V62.1006L250.932 62.2986C250.096 63.7506 249.018 65.0046 247.698 66.0606C246.422 67.1166 244.948 67.9306 243.276 68.5026C241.648 69.0746 239.822 69.3606 237.798 69.3606ZM265.262 68.5686V32.8626H272.72V68.5686H265.262ZM265.262 27.9786V19.3986H272.72V27.9786H265.262ZM281.44 68.5686V32.8626H288.568V39.8586L287.71 38.9346C288.59 36.6906 289.998 34.9966 291.934 33.8526C293.87 32.6646 296.114 32.0706 298.666 32.0706C301.306 32.0706 303.638 32.6426 305.662 33.7866C307.686 34.9306 309.27 36.5146 310.414 38.5386C311.558 40.5626 312.13 42.8946 312.13 45.5346V68.5686H304.738V47.5146C304.738 45.7106 304.408 44.1926 303.748 42.9606C303.088 41.6846 302.142 40.7166 300.91 40.0566C299.722 39.3526 298.358 39.0006 296.818 39.0006C295.278 39.0006 293.892 39.3526 292.66 40.0566C291.472 40.7166 290.548 41.6846 289.888 42.9606C289.228 44.2366 288.898 45.7546 288.898 47.5146V68.5686H281.44Z" fill="white"/>
<path d="M364.282 22.216C363.346 22.216 362.47 22.048 361.654 21.712C360.85 21.364 360.142 20.884 359.53 20.272C358.918 19.648 358.438 18.916 358.09 18.076C357.742 17.224 357.568 16.294 357.568 15.286C357.568 14.278 357.742 13.354 358.09 12.514C358.438 11.662 358.918 10.93 359.53 10.318C360.142 9.694 360.85 9.214 361.654 8.878C362.47 8.542 363.346 8.374 364.282 8.374C365.218 8.374 366.088 8.548 366.892 8.896C367.708 9.232 368.422 9.712 369.034 10.336C369.646 10.948 370.126 11.674 370.474 12.514C370.822 13.354 370.996 14.278 370.996 15.286C370.996 16.294 370.822 17.224 370.474 18.076C370.126 18.916 369.646 19.648 369.034 20.272C368.422 20.884 367.708 21.364 366.892 21.712C366.088 22.048 365.218 22.216 364.282 22.216ZM364.282 20.866C365.062 20.866 365.77 20.722 366.406 20.434C367.054 20.146 367.612 19.744 368.08 19.228C368.548 18.712 368.908 18.118 369.16 17.446C369.424 16.774 369.556 16.054 369.556 15.286C369.556 14.53 369.424 13.816 369.16 13.144C368.908 12.472 368.548 11.878 368.08 11.362C367.612 10.846 367.054 10.444 366.406 10.156C365.77 9.868 365.062 9.724 364.282 9.724C363.502 9.724 362.788 9.868 362.14 10.156C361.504 10.444 360.952 10.846 360.484 11.362C360.016 11.878 359.65 12.472 359.386 13.144C359.134 13.816 359.008 14.53 359.008 15.286C359.008 16.054 359.134 16.774 359.386 17.446C359.65 18.118 360.016 18.712 360.484 19.228C360.952 19.744 361.51 20.146 362.158 20.434C362.806 20.722 363.514 20.866 364.282 20.866ZM373.569 22V12.352H374.919V13.936L374.739 13.702C374.967 13.246 375.309 12.886 375.765 12.622C376.233 12.358 376.797 12.226 377.457 12.226H378.069V13.576H377.223C376.527 13.576 375.969 13.792 375.549 14.224C375.129 14.656 374.919 15.268 374.919 16.06V22H373.569ZM384.223 25.96C383.563 25.96 382.951 25.858 382.387 25.654C381.835 25.45 381.355 25.168 380.947 24.808C380.551 24.46 380.245 24.052 380.029 23.584L381.271 22.918C381.463 23.374 381.805 23.77 382.297 24.106C382.789 24.442 383.419 24.61 384.187 24.61C384.775 24.61 385.315 24.496 385.807 24.268C386.299 24.04 386.695 23.704 386.995 23.26C387.295 22.816 387.445 22.27 387.445 21.622V19.48L387.661 19.678C387.325 20.374 386.827 20.914 386.167 21.298C385.507 21.67 384.787 21.856 384.007 21.856C383.107 21.856 382.297 21.64 381.577 21.208C380.857 20.776 380.287 20.194 379.867 19.462C379.459 18.718 379.255 17.896 379.255 16.996C379.255 16.084 379.459 15.262 379.867 14.53C380.287 13.798 380.851 13.216 381.559 12.784C382.279 12.352 383.095 12.136 384.007 12.136C384.787 12.136 385.495 12.316 386.131 12.676C386.779 13.036 387.289 13.522 387.661 14.134L387.445 14.512V12.352H388.795V21.622C388.795 22.45 388.597 23.188 388.201 23.836C387.817 24.496 387.277 25.012 386.581 25.384C385.897 25.768 385.111 25.96 384.223 25.96ZM384.079 20.506C384.703 20.506 385.267 20.35 385.771 20.038C386.275 19.714 386.677 19.288 386.977 18.76C387.289 18.22 387.445 17.632 387.445 16.996C387.445 16.36 387.289 15.778 386.977 15.25C386.677 14.71 386.275 14.284 385.771 13.972C385.267 13.648 384.703 13.486 384.079 13.486C383.443 13.486 382.867 13.648 382.351 13.972C381.835 14.284 381.427 14.704 381.127 15.232C380.839 15.76 380.695 16.348 380.695 16.996C380.695 17.632 380.839 18.22 381.127 18.76C381.427 19.288 381.829 19.714 382.333 20.038C382.849 20.35 383.431 20.506 384.079 20.506ZM394.359 22.216C393.747 22.216 393.201 22.102 392.721 21.874C392.241 21.634 391.863 21.31 391.587 20.902C391.311 20.494 391.173 20.026 391.173 19.498C391.173 18.994 391.281 18.538 391.497 18.13C391.713 17.71 392.049 17.356 392.505 17.068C392.961 16.78 393.543 16.576 394.251 16.456L398.031 15.826V17.05L394.575 17.626C393.879 17.746 393.375 17.968 393.063 18.292C392.763 18.616 392.613 19 392.613 19.444C392.613 19.876 392.781 20.242 393.117 20.542C393.465 20.842 393.909 20.992 394.449 20.992C395.109 20.992 395.685 20.854 396.177 20.578C396.669 20.29 397.053 19.906 397.329 19.426C397.605 18.946 397.743 18.412 397.743 17.824V15.376C397.743 14.8 397.533 14.332 397.113 13.972C396.693 13.612 396.147 13.432 395.475 13.432C394.887 13.432 394.371 13.582 393.927 13.882C393.483 14.17 393.153 14.548 392.937 15.016L391.713 14.35C391.893 13.942 392.175 13.57 392.559 13.234C392.955 12.898 393.405 12.634 393.909 12.442C394.413 12.238 394.935 12.136 395.475 12.136C396.183 12.136 396.807 12.274 397.347 12.55C397.899 12.826 398.325 13.21 398.625 13.702C398.937 14.182 399.093 14.74 399.093 15.376V22H397.743V20.074L397.941 20.272C397.773 20.632 397.509 20.962 397.149 21.262C396.801 21.55 396.387 21.784 395.907 21.964C395.439 22.132 394.923 22.216 394.359 22.216ZM401.869 22V12.352H403.219V14.224L402.913 14.152C403.153 13.528 403.543 13.036 404.083 12.676C404.635 12.316 405.271 12.136 405.991 12.136C406.675 12.136 407.287 12.292 407.827 12.604C408.379 12.916 408.811 13.348 409.123 13.9C409.447 14.44 409.609 15.052 409.609 15.736V22H408.259V16.258C408.259 15.67 408.151 15.172 407.935 14.764C407.731 14.356 407.437 14.044 407.053 13.828C406.681 13.6 406.249 13.486 405.757 13.486C405.265 13.486 404.827 13.6 404.443 13.828C404.059 14.044 403.759 14.362 403.543 14.782C403.327 15.19 403.219 15.682 403.219 16.258V22H401.869ZM412.188 22V12.352H413.538V22H412.188ZM412.188 10.57V8.59H413.538V10.57H412.188ZM415.311 22V20.83L421.125 13.18L421.377 13.702H415.617V12.352H422.565V13.522L416.769 21.172L416.517 20.65H422.601V22H415.311ZM428.779 22.216C427.879 22.216 427.063 22 426.331 21.568C425.611 21.124 425.041 20.518 424.621 19.75C424.201 18.982 423.991 18.112 423.991 17.14C423.991 16.168 424.195 15.31 424.603 14.566C425.011 13.81 425.563 13.216 426.259 12.784C426.967 12.352 427.759 12.136 428.635 12.136C429.331 12.136 429.949 12.268 430.489 12.532C431.041 12.784 431.509 13.132 431.893 13.576C432.277 14.008 432.571 14.5 432.775 15.052C432.979 15.592 433.081 16.15 433.081 16.726C433.081 16.846 433.075 16.984 433.063 17.14C433.051 17.284 433.033 17.434 433.009 17.59H424.855V16.33H432.235L431.587 16.87C431.695 16.21 431.617 15.622 431.353 15.106C431.101 14.578 430.735 14.164 430.255 13.864C429.775 13.552 429.235 13.396 428.635 13.396C428.035 13.396 427.477 13.552 426.961 13.864C426.457 14.176 426.061 14.614 425.773 15.178C425.485 15.73 425.371 16.39 425.431 17.158C425.371 17.926 425.491 18.598 425.791 19.174C426.103 19.738 426.523 20.176 427.051 20.488C427.591 20.8 428.167 20.956 428.779 20.956C429.487 20.956 430.081 20.788 430.561 20.452C431.041 20.116 431.431 19.696 431.731 19.192L432.883 19.804C432.691 20.236 432.397 20.638 432.001 21.01C431.605 21.37 431.131 21.664 430.579 21.892C430.039 22.108 429.439 22.216 428.779 22.216ZM439.817 22.216C438.917 22.216 438.107 22 437.387 21.568C436.667 21.124 436.097 20.524 435.677 19.768C435.269 19 435.065 18.136 435.065 17.176C435.065 16.204 435.269 15.34 435.677 14.584C436.097 13.828 436.661 13.234 437.369 12.802C438.089 12.358 438.905 12.136 439.817 12.136C440.645 12.136 441.383 12.316 442.031 12.676C442.679 13.036 443.189 13.522 443.561 14.134L443.345 14.512V8.374H444.695V22H443.345V19.84L443.561 20.038C443.225 20.734 442.721 21.274 442.049 21.658C441.389 22.03 440.645 22.216 439.817 22.216ZM439.889 20.866C440.537 20.866 441.119 20.704 441.635 20.38C442.163 20.056 442.577 19.618 442.877 19.066C443.189 18.502 443.345 17.872 443.345 17.176C443.345 16.48 443.189 15.856 442.877 15.304C442.577 14.74 442.163 14.296 441.635 13.972C441.119 13.648 440.537 13.486 439.889 13.486C439.253 13.486 438.677 13.648 438.161 13.972C437.645 14.296 437.237 14.734 436.937 15.286C436.649 15.838 436.505 16.468 436.505 17.176C436.505 17.872 436.649 18.502 436.937 19.066C437.237 19.618 437.639 20.056 438.143 20.38C438.659 20.704 439.241 20.866 439.889 20.866ZM455.404 22.216C454.576 22.216 453.826 22.03 453.154 21.658C452.494 21.274 451.996 20.734 451.66 20.038L451.876 19.84V22H450.526V8.374H451.876V14.512L451.66 14.134C452.044 13.522 452.554 13.036 453.19 12.676C453.838 12.316 454.576 12.136 455.404 12.136C456.316 12.136 457.126 12.358 457.834 12.802C458.554 13.234 459.118 13.828 459.526 14.584C459.946 15.34 460.156 16.204 460.156 17.176C460.156 18.136 459.946 19 459.526 19.768C459.118 20.524 458.554 21.124 457.834 21.568C457.126 22 456.316 22.216 455.404 22.216ZM455.332 20.866C455.98 20.866 456.556 20.704 457.06 20.38C457.576 20.056 457.978 19.618 458.266 19.066C458.566 18.502 458.716 17.872 458.716 17.176C458.716 16.468 458.566 15.838 458.266 15.286C457.978 14.734 457.576 14.296 457.06 13.972C456.556 13.648 455.98 13.486 455.332 13.486C454.684 13.486 454.096 13.648 453.568 13.972C453.052 14.296 452.638 14.74 452.326 15.304C452.026 15.856 451.876 16.48 451.876 17.176C451.876 17.872 452.026 18.502 452.326 19.066C452.638 19.618 453.052 20.056 453.568 20.38C454.096 20.704 454.684 20.866 455.332 20.866ZM462.554 25.96C462.362 25.96 462.164 25.942 461.96 25.906C461.768 25.882 461.576 25.834 461.384 25.762V24.502C461.504 24.514 461.654 24.532 461.834 24.556C462.026 24.592 462.218 24.61 462.41 24.61C462.998 24.61 463.448 24.484 463.76 24.232C464.072 23.992 464.378 23.524 464.678 22.828L465.29 21.388L465.254 22.576L461.168 12.352H462.626L465.974 20.794H465.596L468.926 12.352H470.42L466.01 23.224C465.818 23.692 465.572 24.136 465.272 24.556C464.984 24.976 464.618 25.312 464.174 25.564C463.73 25.828 463.19 25.96 462.554 25.96Z" fill="white"/>
<path d="M422.375 77.1809C421.709 77.1809 421.134 76.9766 420.647 76.568C420.161 76.1593 419.919 75.6974 419.919 75.1866V42.799C419.919 42.186 420.161 41.713 420.647 41.3798C421.134 41.0489 421.709 40.8801 422.375 40.8801C423.042 40.8801 423.603 41.0467 424.063 41.3798C424.523 41.713 424.754 42.186 424.754 42.799V46.559C425.316 45.4841 426.084 44.4869 427.057 43.5652C428.027 42.6435 429.18 41.8907 430.51 41.3021C431.841 40.7136 433.351 40.4204 435.039 40.4204H437.724C438.286 40.4204 438.761 40.6514 439.143 41.1111C439.527 41.5708 439.718 42.1083 439.718 42.7235C439.718 43.3898 439.527 43.9383 439.143 44.3736C438.759 44.8089 438.286 45.0266 437.724 45.0266H435.039C433.351 45.0266 431.725 45.4863 430.166 46.408C428.605 47.3297 427.339 48.6089 426.368 50.2457C425.396 51.8825 424.909 53.8791 424.909 56.2311V75.1866C424.909 75.6974 424.665 76.1593 424.181 76.568C423.694 76.9788 423.093 77.1809 422.377 77.1809H422.375Z" fill="#CF26A0"/>
<path d="M458.83 77.7184C455.608 77.7184 452.754 77.1054 450.273 75.8773C447.79 74.6491 445.847 72.9479 444.441 70.7736C443.033 68.5993 442.331 66.0542 442.331 63.1381V54.6187C442.331 52.0602 442.995 49.6949 444.325 47.5207C445.656 45.3464 447.435 43.6207 449.66 42.3393C451.885 41.06 454.328 40.4204 456.989 40.4204C459.65 40.4204 461.913 41.0223 464.087 42.2238C466.261 43.4275 468.014 45.0777 469.344 47.1742C470.674 49.273 471.338 51.7026 471.338 54.4655C471.338 56.411 471.005 57.8168 470.341 58.6874C469.675 59.558 468.844 60.0821 467.847 60.2598C466.85 60.4397 465.786 60.5285 464.662 60.5285H447.317V63.3669C447.317 66.4362 448.416 68.8681 450.617 70.6581C452.816 72.4504 455.605 73.3432 458.983 73.3432C461.029 73.3432 462.615 73.0878 463.741 72.5748C464.864 72.064 465.748 71.5509 466.388 71.0401C467.028 70.5293 467.627 70.2717 468.191 70.2717C468.6 70.2717 468.971 70.4138 469.304 70.6937C469.637 70.9757 469.893 71.2955 470.072 71.6531C470.25 72.0107 470.341 72.3438 470.341 72.6503C470.341 73.2144 469.881 73.9051 468.96 74.7224C468.038 75.5419 466.708 76.2459 464.969 76.8323C463.23 77.4208 461.182 77.714 458.83 77.714V77.7184ZM447.319 56.8441H462.668C464.203 56.8441 465.226 56.6797 465.737 56.3443C466.248 56.0112 466.506 55.3072 466.506 54.2345C466.506 52.5977 466.095 51.0497 465.278 49.5906C464.458 48.1314 463.332 46.9299 461.902 45.9838C460.469 45.0377 458.806 44.5646 456.914 44.5646C455.175 44.5646 453.576 44.9999 452.116 45.8683C450.657 46.7389 449.493 47.8649 448.625 49.2463C447.755 50.6277 447.321 52.189 447.321 53.928V56.8441H447.319Z" fill="#CF26A0"/>
<path d="M481.239 77.1809C480.572 77.1809 479.997 76.9766 479.511 76.568C479.024 76.1593 478.782 75.6974 478.782 75.1866V42.799C478.782 42.186 479.024 41.713 479.511 41.3798C479.997 41.0489 480.572 40.8801 481.239 40.8801C481.905 40.8801 482.467 41.0467 482.926 41.3798C483.386 41.713 483.617 42.186 483.617 42.799V46.2525C484.434 44.769 485.714 43.4253 487.455 42.2238C489.194 41.0223 491.341 40.4204 493.902 40.4204C496.463 40.4204 498.622 41.0734 500.694 42.377C502.766 43.6807 504.416 45.4219 505.644 47.5962C506.872 49.7704 507.485 52.189 507.485 54.8497V75.1866C507.485 75.8528 507.228 76.3503 506.717 76.6835C506.204 77.0166 505.615 77.1832 504.951 77.1832C504.387 77.1832 503.839 77.0188 503.301 76.6835C502.764 76.3503 502.495 75.8528 502.495 75.1866V54.8497C502.495 53.1618 502.06 51.576 501.189 50.0925C500.318 48.6089 499.168 47.3941 497.735 46.448C496.303 45.5019 494.715 45.0288 492.976 45.0288C491.441 45.0288 489.969 45.4263 488.563 46.2192C487.155 47.0121 486.005 48.127 485.11 49.5572C484.215 50.9897 483.766 52.7554 483.766 54.8519V75.1888C483.766 75.6996 483.522 76.1615 483.038 76.5702C482.551 76.9811 481.949 77.1832 481.234 77.1832L481.239 77.1809Z" fill="#CF26A0"/>
<path d="M524.753 77.7181C521.837 77.7181 519.367 76.8875 517.346 75.224C515.325 73.5628 514.314 71.0154 514.314 67.5885C514.314 64.7747 515.07 62.6137 516.578 61.1035C518.086 59.5955 520.184 58.545 522.872 57.9565C525.557 57.3679 528.666 57.0748 532.197 57.0748H536.11V55.3091C536.11 53.6212 535.815 51.9711 535.229 50.3587C534.64 48.7463 533.694 47.4182 532.388 46.3677C531.082 45.3195 529.306 44.7953 527.054 44.7953C525.366 44.7953 523.984 44.9752 522.909 45.3328C521.834 45.6904 520.991 46.0613 520.378 46.4455C519.765 46.8297 519.252 47.0207 518.843 47.0207C518.23 47.0207 517.73 46.7142 517.346 46.099C516.962 45.486 516.771 44.9219 516.771 44.4111C516.771 43.696 517.308 43.043 518.383 42.4545C519.458 41.866 520.802 41.3796 522.412 40.9976C524.024 40.6134 525.621 40.4224 527.209 40.4224C530.636 40.4224 533.361 41.1264 535.382 42.5322C537.403 43.9403 538.86 45.7681 539.757 48.0201C540.652 50.2721 541.101 52.6774 541.101 55.2336V75.1885C541.101 75.7526 540.883 76.2257 540.448 76.6077C540.013 76.9919 539.411 77.1829 538.645 77.1829C538.032 77.1829 537.481 76.9919 536.994 76.6077C536.508 76.2234 536.266 75.7504 536.266 75.1885V71.8127C534.987 73.3474 533.401 74.7177 531.509 75.9192C529.614 77.1207 527.365 77.7226 524.755 77.7226L524.753 77.7181ZM525.981 73.4984C527.669 73.4984 529.281 73.0631 530.816 72.1947C532.35 71.3241 533.616 70.2647 534.616 69.0099C535.613 67.7573 536.113 66.5669 536.113 65.4409V60.5305H532.89C530.587 60.5305 528.399 60.6726 526.327 60.9525C524.255 61.2345 522.567 61.8342 521.261 62.7558C519.956 63.6775 519.305 65.1344 519.305 67.131C519.305 69.332 519.958 70.9421 521.261 71.966C522.565 72.9898 524.14 73.5006 525.981 73.5006V73.4984Z" fill="#CF26A0"/>
<path d="M563.508 77.7184C560.899 77.7184 558.482 77.041 556.257 75.684C554.032 74.3293 552.253 72.537 550.922 70.3117C549.592 68.0863 548.926 65.6944 548.926 63.1359V54.8475C548.926 52.289 549.579 49.9104 550.882 47.7094C552.186 45.5107 553.952 43.7451 556.177 42.4148C558.402 41.0845 560.845 40.4204 563.506 40.4204C566.167 40.4204 568.532 41.0734 570.76 42.377C572.985 43.6807 574.762 45.4219 576.094 47.5962C577.425 49.7704 578.089 52.189 578.089 54.8497V63.1381C578.089 65.6455 577.422 68.0241 576.094 70.2761C574.764 72.5281 572.985 74.3315 570.76 75.6863C568.534 77.0432 566.116 77.7206 563.506 77.7206L563.508 77.7184ZM563.508 73.1144C565.298 73.1144 566.911 72.6414 568.343 71.6953C569.776 70.7492 570.926 69.5077 571.797 67.973C572.665 66.4384 573.1 64.826 573.1 63.1381V54.8497C573.1 53.1618 572.678 51.576 571.834 50.0925C570.991 48.6089 569.838 47.3941 568.381 46.448C566.922 45.5019 565.298 45.0288 563.508 45.0288C561.718 45.0288 560.106 45.5019 558.673 46.448C557.241 47.3941 556.088 48.6089 555.22 50.0925C554.349 51.576 553.914 53.1618 553.914 54.8497V63.1381C553.914 64.826 554.336 66.4384 555.18 67.973C556.024 69.5077 557.188 70.7492 558.671 71.6953C560.155 72.6414 561.767 73.1144 563.506 73.1144H563.508Z" fill="#CF26A0"/>
<path d="M381.704 74.6063C389.652 74.6063 396.096 68.163 396.096 60.2147C396.096 52.2665 389.652 45.8232 381.704 45.8232C373.756 45.8232 367.312 52.2665 367.312 60.2147C367.312 68.163 373.756 74.6063 381.704 74.6063Z" fill="#ECA8D9"/>
<path d="M393.555 60.2149C393.555 53.6692 388.249 48.3629 381.703 48.3629C375.158 48.3629 369.851 53.6693 369.851 60.2149C369.851 66.7606 375.158 72.067 381.703 72.067C388.249 72.067 393.555 66.7607 393.555 60.2149ZM398.634 60.2149C398.634 69.5656 391.054 77.146 381.703 77.146C372.353 77.146 364.772 69.5656 364.772 60.2149C364.773 50.8643 372.353 43.2842 381.703 43.2842C391.054 43.2842 398.634 50.8643 398.634 60.2149Z" fill="#CF26A0"/>
<path d="M393.667 47.3162C394.291 41.7773 390.966 36.3805 385.459 34.5904C379.165 32.545 372.406 35.9918 370.361 42.2837C369.77 44.1048 369.637 45.9637 369.901 47.736" fill="#CF26A0"/>
<path d="M364.313 64.0132C360.553 68.1263 360.071 74.4492 363.474 79.1331C367.365 84.4855 374.856 85.6737 380.21 81.7827C381.758 80.6567 382.958 79.2309 383.788 77.6429" fill="#CF26A0"/>
<path d="M382.755 46.0406C382.755 45.4601 382.284 44.9895 381.704 44.9895C381.123 44.9895 380.653 45.4601 380.653 46.0406C380.653 46.6211 381.123 47.0916 381.704 47.0916C382.284 47.0916 382.755 46.6211 382.755 46.0406ZM384.766 46.0406C384.766 47.7317 383.395 49.1027 381.704 49.1027C380.013 49.1027 378.642 47.7317 378.642 46.0406C378.642 44.3495 380.013 42.9785 381.704 42.9785C383.395 42.9785 384.766 44.3495 384.766 46.0406Z" fill="#CF26A0"/>
<path d="M369.068 55.9859C369.068 55.4054 368.598 54.9349 368.017 54.9349C367.437 54.9349 366.966 55.4054 366.966 55.9859C366.966 56.5664 367.437 57.037 368.017 57.037C368.598 57.037 369.068 56.5664 369.068 55.9859ZM371.079 55.9859C371.079 57.677 369.708 59.048 368.017 59.048C366.326 59.048 364.955 57.677 364.955 55.9859C364.955 54.2948 366.326 52.9238 368.017 52.9238C369.708 52.9238 371.079 54.2948 371.079 55.9859Z" fill="#CF26A0"/>
<path d="M374.296 72.0767C374.296 71.4962 373.825 71.0257 373.245 71.0257C372.664 71.0257 372.194 71.4962 372.194 72.0767C372.194 72.6572 372.664 73.1278 373.245 73.1278C373.825 73.1278 374.296 72.6572 374.296 72.0767ZM376.307 72.0767C376.307 73.7678 374.936 75.1388 373.245 75.1388C371.554 75.1388 370.183 73.7678 370.183 72.0767C370.183 70.3856 371.554 69.0146 373.245 69.0146C374.936 69.0146 376.307 70.3856 376.307 72.0767Z" fill="#CF26A0"/>
<path d="M391.215 72.0767C391.215 71.4962 390.744 71.0257 390.164 71.0257C389.583 71.0257 389.113 71.4962 389.113 72.0767C389.113 72.6572 389.583 73.1278 390.164 73.1278C390.744 73.1278 391.215 72.6572 391.215 72.0767ZM393.226 72.0767C393.226 73.7678 391.855 75.1388 390.164 75.1388C388.473 75.1388 387.102 73.7678 387.102 72.0767C387.102 70.3856 388.473 69.0146 390.164 69.0146C391.855 69.0146 393.226 70.3856 393.226 72.0767Z" fill="#CF26A0"/>
<path d="M407.442 56.0193C407.442 49.4009 402.076 44.0374 395.46 44.0374C394.829 44.0374 394.212 44.0907 393.608 44.184C392.946 39.8488 389.919 36.0355 385.462 34.5897C379.168 32.5442 372.409 35.9911 370.364 42.2829C370.168 42.8826 370.029 43.4889 369.931 44.093C365.602 43.3823 361.043 45.0835 358.289 48.8746C354.4 54.2292 355.586 61.7226 360.941 65.6114C361.451 65.9823 361.982 66.3021 362.526 66.5819C360.514 70.4796 360.723 75.3412 363.477 79.1323C367.368 84.4847 374.859 85.6729 380.214 81.7818C380.724 81.4109 381.193 81.0045 381.626 80.5737C384.711 83.6918 389.399 84.9955 393.857 83.5475C400.151 81.502 403.593 74.7415 401.548 68.4497C401.352 67.8501 401.11 67.2793 400.835 66.7329C404.755 64.763 407.444 60.7054 407.442 56.0215V56.0193ZM381.944 73.2335L369.913 64.8141L374.202 50.7713L388.882 50.5114L393.666 64.3943L381.941 73.2335H381.944Z" fill="#CF26A0"/>
<path d="M381.704 54.5007C386.376 54.5007 390.163 50.7133 390.163 46.0412C390.163 41.3692 386.376 37.5818 381.704 37.5818C377.032 37.5818 373.244 41.3692 373.244 46.0412C373.244 50.7133 377.032 54.5007 381.704 54.5007Z" fill="white"/>
<path d="M389.157 46.0409C389.157 41.9242 385.82 38.587 381.703 38.587C377.587 38.587 374.249 41.9242 374.249 46.0409C374.249 50.1576 377.587 53.4949 381.703 53.4949C385.82 53.4949 389.157 50.1576 389.157 46.0409ZM391.168 46.0409C391.168 51.2682 386.931 55.5059 381.703 55.5059C376.476 55.5059 372.238 51.2682 372.238 46.0409C372.238 40.8136 376.476 36.5759 381.703 36.5759C386.931 36.5759 391.168 40.8136 391.168 46.0409Z" fill="#CF26A0"/>
<path d="M368.017 64.4458C372.689 64.4458 376.477 60.6583 376.477 55.9863C376.477 51.3143 372.689 47.5269 368.017 47.5269C363.345 47.5269 359.558 51.3143 359.558 55.9863C359.558 60.6583 363.345 64.4458 368.017 64.4458Z" fill="white"/>
<path d="M375.471 55.9865C375.471 51.8697 372.133 48.5325 368.017 48.5325C363.9 48.5325 360.563 51.8697 360.563 55.9865C360.563 60.1032 363.9 63.4404 368.017 63.4404C372.133 63.4404 375.471 60.1032 375.471 55.9865ZM377.482 55.9865C377.482 61.2138 373.244 65.4514 368.017 65.4515C362.789 65.4515 358.552 61.2138 358.552 55.9865C358.552 50.7592 362.789 46.5215 368.017 46.5215C373.244 46.5215 377.482 50.7592 377.482 55.9865Z" fill="#CF26A0"/>
<path d="M373.245 80.5366C377.917 80.5366 381.704 76.7491 381.704 72.0771C381.704 67.4051 377.917 63.6177 373.245 63.6177C368.573 63.6177 364.785 67.4051 364.785 72.0771C364.785 76.7491 368.573 80.5366 373.245 80.5366Z" fill="white"/>
<path d="M380.698 72.0768C380.698 67.9601 377.361 64.6229 373.244 64.6228C369.128 64.6228 365.79 67.9601 365.79 72.0768C365.79 76.1935 369.128 79.5308 373.244 79.5308C377.361 79.5307 380.698 76.1935 380.698 72.0768ZM382.709 72.0768C382.709 77.3041 378.472 81.5418 373.244 81.5418C368.017 81.5418 363.779 77.3041 363.779 72.0768C363.779 66.8495 368.017 62.6118 373.244 62.6118C378.472 62.6118 382.709 66.8495 382.709 72.0768Z" fill="#CF26A0"/>
<path d="M390.164 80.5366C394.836 80.5366 398.623 76.7491 398.623 72.0771C398.623 67.4051 394.836 63.6177 390.164 63.6177C385.492 63.6177 381.704 67.4051 381.704 72.0771C381.704 76.7491 385.492 80.5366 390.164 80.5366Z" fill="white"/>
<path d="M397.617 72.0768C397.617 67.9601 394.28 64.6229 390.163 64.6228C386.046 64.6228 382.709 67.9601 382.709 72.0768C382.709 76.1935 386.047 79.5308 390.163 79.5308C394.28 79.5307 397.617 76.1935 397.617 72.0768ZM399.628 72.0768C399.628 77.3041 395.391 81.5418 390.163 81.5418C384.936 81.5418 380.698 77.3041 380.698 72.0768C380.698 66.8495 384.936 62.6118 390.163 62.6118C395.391 62.6118 399.628 66.8495 399.628 72.0768Z" fill="#CF26A0"/>
<path d="M395.391 64.4458C400.063 64.4458 403.851 60.6583 403.851 55.9863C403.851 51.3143 400.063 47.5269 395.391 47.5269C390.719 47.5269 386.932 51.3143 386.932 55.9863C386.932 60.6583 390.719 64.4458 395.391 64.4458Z" fill="white"/>
<path d="M402.845 55.9865C402.845 51.8697 399.507 48.5325 395.391 48.5325C391.274 48.5325 387.937 51.8697 387.937 55.9865C387.937 60.1032 391.274 63.4404 395.391 63.4404C399.507 63.4404 402.845 60.1032 402.845 55.9865ZM404.856 55.9865C404.856 61.2138 400.618 65.4514 395.391 65.4515C390.163 65.4515 385.926 61.2138 385.926 55.9865C385.926 50.7592 390.163 46.5215 395.391 46.5215C400.618 46.5215 404.856 50.7592 404.856 55.9865Z" fill="#CF26A0"/>
<path d="M380.698 47.147H382.709V60.4324H380.698V47.147Z" fill="#CF26A0"/>
<path d="M386.748 65.6624V65.6627L390.977 71.4859L389.35 72.6676L385.121 66.8445V66.8441L380.891 61.0237L382.517 59.8413L386.748 65.6624Z" fill="#CF26A0"/>
<path d="M382.015 59.4764L381.394 61.389L367.706 56.9426L368.328 55.0303L382.015 59.4764Z" fill="#CF26A0"/>
<path d="M395.703 56.9426L388.86 59.1656L382.015 61.389L381.394 59.4764L395.081 55.0303L395.703 56.9426Z" fill="#CF26A0"/>
<path d="M382.517 61.0235L374.057 72.6678L372.431 71.486L380.89 59.8418L382.517 61.0235Z" fill="#CF26A0"/>
<path d="M395.392 58.0428C396.527 58.0428 397.448 57.1221 397.448 55.9863C397.448 54.8504 396.527 53.9297 395.392 53.9297C394.256 53.9297 393.335 54.8504 393.335 55.9863C393.335 57.1221 394.256 58.0428 395.392 58.0428Z" fill="white"/>
<path d="M396.442 55.9859C396.442 55.4054 395.972 54.9349 395.391 54.9349C394.811 54.9349 394.34 55.4054 394.34 55.9859C394.34 56.5664 394.811 57.037 395.391 57.037C395.972 57.037 396.442 56.5664 396.442 55.9859ZM398.453 55.9859C398.453 57.677 397.082 59.048 395.391 59.048C393.7 59.048 392.329 57.677 392.329 55.9859C392.329 54.2948 393.7 52.9238 395.391 52.9238C397.082 52.9238 398.453 54.2948 398.453 55.9859Z" fill="#CF26A0"/>
<path d="M381.703 48.0975C382.839 48.0975 383.76 47.1767 383.76 46.0409C383.76 44.9051 382.839 43.9844 381.703 43.9844C380.567 43.9844 379.646 44.9051 379.646 46.0409C379.646 47.1767 380.567 48.0975 381.703 48.0975Z" fill="white"/>
<path d="M382.755 46.0406C382.755 45.4601 382.284 44.9895 381.704 44.9895C381.123 44.9895 380.653 45.4601 380.653 46.0406C380.653 46.6211 381.123 47.0916 381.704 47.0916C382.284 47.0916 382.755 46.6211 382.755 46.0406ZM384.766 46.0406C384.766 47.7317 383.395 49.1027 381.704 49.1027C380.013 49.1027 378.642 47.7317 378.642 46.0406C378.642 44.3495 380.013 42.9785 381.704 42.9785C383.395 42.9785 384.766 44.3495 384.766 46.0406Z" fill="#CF26A0"/>
<path d="M368.017 58.0428C369.152 58.0428 370.073 57.1221 370.073 55.9863C370.073 54.8504 369.152 53.9297 368.017 53.9297C366.881 53.9297 365.96 54.8504 365.96 55.9863C365.96 57.1221 366.881 58.0428 368.017 58.0428Z" fill="white"/>
<path d="M369.068 55.9859C369.068 55.4054 368.598 54.9349 368.017 54.9349C367.437 54.9349 366.966 55.4054 366.966 55.9859C366.966 56.5664 367.437 57.037 368.017 57.037C368.598 57.037 369.068 56.5664 369.068 55.9859ZM371.079 55.9859C371.079 57.677 369.708 59.048 368.017 59.048C366.326 59.048 364.955 57.677 364.955 55.9859C364.955 54.2948 366.326 52.9238 368.017 52.9238C369.708 52.9238 371.079 54.2948 371.079 55.9859Z" fill="#CF26A0"/>
<path d="M373.244 74.1336C374.38 74.1336 375.301 73.2129 375.301 72.0771C375.301 70.9413 374.38 70.0205 373.244 70.0205C372.108 70.0205 371.188 70.9413 371.188 72.0771C371.188 73.2129 372.108 74.1336 373.244 74.1336Z" fill="white"/>
<path d="M374.296 72.0767C374.296 71.4962 373.825 71.0257 373.245 71.0257C372.664 71.0257 372.194 71.4962 372.194 72.0767C372.194 72.6572 372.664 73.1278 373.245 73.1278C373.825 73.1278 374.296 72.6572 374.296 72.0767ZM376.307 72.0767C376.307 73.7678 374.936 75.1388 373.245 75.1388C371.554 75.1388 370.183 73.7678 370.183 72.0767C370.183 70.3856 371.554 69.0146 373.245 69.0146C374.936 69.0146 376.307 70.3856 376.307 72.0767Z" fill="#CF26A0"/>
<path d="M390.163 74.1336C391.299 74.1336 392.22 73.2129 392.22 72.0771C392.22 70.9413 391.299 70.0205 390.163 70.0205C389.027 70.0205 388.106 70.9413 388.106 72.0771C388.106 73.2129 389.027 74.1336 390.163 74.1336Z" fill="white"/>
<path d="M391.215 72.0767C391.215 71.4962 390.744 71.0257 390.164 71.0257C389.583 71.0257 389.113 71.4962 389.113 72.0767C389.113 72.6572 389.583 73.1278 390.164 73.1278C390.744 73.1278 391.215 72.6572 391.215 72.0767ZM393.226 72.0767C393.226 73.7678 391.855 75.1388 390.164 75.1388C388.473 75.1388 387.102 73.7678 387.102 72.0767C387.102 70.3856 388.473 69.0146 390.164 69.0146C391.855 69.0146 393.226 70.3856 393.226 72.0767Z" fill="#CF26A0"/>
</svg>