<svg width="168" height="28" viewBox="0 0 168 28" fill="none" xmlns="http://www.w3.org/2000/svg">
<path d="M-0.000460684 27.252V0.431951H4.24754V14.976L3.13154 14.544L15.2635 0.431951H20.5555L9.82754 12.996L10.0435 9.97195L20.9875 27.252H15.9835L8.13554 14.976L4.24754 19.512V27.252H-0.000460684ZM30.7039 27.684C29.2399 27.684 27.9559 27.36 26.8519 26.712C25.7479 26.04 24.8839 25.116 24.2599 23.94C23.6599 22.74 23.3599 21.36 23.3599 19.8V7.77595H27.4279V19.44C27.4279 20.328 27.6079 21.108 27.9679 21.78C28.3279 22.452 28.8319 22.98 29.4799 23.364C30.1279 23.724 30.8719 23.904 31.7119 23.904C32.5759 23.904 33.3319 23.712 33.9799 23.328C34.6279 22.944 35.1319 22.404 35.4919 21.708C35.8759 21.012 36.0679 20.196 36.0679 19.26V7.77595H40.0999V27.252H36.2479V23.436L36.6799 23.94C36.2239 25.14 35.4679 26.064 34.4119 26.712C33.3559 27.36 32.1199 27.684 30.7039 27.684ZM55.2536 27.684C53.7416 27.684 52.3616 27.372 51.1136 26.748C49.8896 26.124 48.9416 25.224 48.2696 24.048L48.7376 23.292V27.252H44.8496V-4.79221e-05H48.9176V11.808L48.2696 10.872C48.9896 9.76795 49.9496 8.90395 51.1496 8.27995C52.3496 7.65595 53.7176 7.34395 55.2536 7.34395C57.1016 7.34395 58.7576 7.78795 60.2216 8.67595C61.7096 9.56395 62.8736 10.776 63.7136 12.312C64.5776 13.848 65.0096 15.576 65.0096 17.496C65.0096 19.416 64.5776 21.144 63.7136 22.68C62.8736 24.216 61.7216 25.44 60.2576 26.352C58.7936 27.24 57.1256 27.684 55.2536 27.684ZM54.8576 23.904C56.0096 23.904 57.0296 23.628 57.9176 23.076C58.8056 22.524 59.5016 21.768 60.0056 20.808C60.5336 19.824 60.7976 18.72 60.7976 17.496C60.7976 16.272 60.5336 15.18 60.0056 14.22C59.5016 13.26 58.8056 12.504 57.9176 11.952C57.0296 11.4 56.0096 11.124 54.8576 11.124C53.7296 11.124 52.7096 11.4 51.7976 11.952C50.9096 12.504 50.2016 13.26 49.6736 14.22C49.1696 15.18 48.9176 16.272 48.9176 17.496C48.9176 18.72 49.1696 19.824 49.6736 20.808C50.2016 21.768 50.9096 22.524 51.7976 23.076C52.7096 23.628 53.7296 23.904 54.8576 23.904ZM78.1108 27.684C76.1668 27.684 74.4388 27.24 72.9268 26.352C71.4388 25.44 70.2748 24.216 69.4348 22.68C68.5948 21.12 68.1748 19.38 68.1748 17.46C68.1748 15.492 68.5948 13.752 69.4348 12.24C70.2988 10.728 71.4508 9.53995 72.8908 8.67595C74.3308 7.78795 75.9628 7.34395 77.7868 7.34395C79.2508 7.34395 80.5588 7.59595 81.7108 8.09995C82.8628 8.60395 83.8348 9.29995 84.6268 10.188C85.4188 11.052 86.0188 12.048 86.4268 13.176C86.8588 14.304 87.0748 15.504 87.0748 16.776C87.0748 17.088 87.0628 17.412 87.0388 17.748C87.0148 18.084 86.9668 18.396 86.8948 18.684H71.3788V15.444H84.5908L82.6468 16.92C82.8868 15.744 82.8028 14.7 82.3948 13.788C82.0108 12.852 81.4108 12.12 80.5948 11.592C79.8028 11.04 78.8668 10.764 77.7868 10.764C76.7068 10.764 75.7468 11.04 74.9068 11.592C74.0668 12.12 73.4188 12.888 72.9628 13.896C72.5068 14.88 72.3268 16.08 72.4228 17.496C72.3028 18.816 72.4828 19.968 72.9628 20.952C73.4668 21.936 74.1628 22.704 75.0508 23.256C75.9628 23.808 76.9948 24.084 78.1468 24.084C79.3228 24.084 80.3188 23.82 81.1348 23.292C81.9748 22.764 82.6348 22.08 83.1148 21.24L86.4268 22.86C86.0428 23.772 85.4428 24.6 84.6268 25.344C83.8348 26.064 82.8748 26.64 81.7468 27.072C80.6428 27.48 79.4308 27.684 78.1108 27.684ZM96.1929 27.252V4.21195H89.0649V0.431951H107.425V4.21195H100.405V27.252H96.1929ZM108.061 27.252V7.77595H111.949V11.7L111.589 11.124C112.021 9.85195 112.717 8.93995 113.677 8.38795C114.637 7.81195 115.789 7.52395 117.133 7.52395H118.321V11.232H116.629C115.285 11.232 114.193 11.652 113.353 12.492C112.537 13.308 112.129 14.484 112.129 16.02V27.252H108.061ZM126.936 27.684C125.616 27.684 124.452 27.456 123.444 27C122.46 26.52 121.692 25.872 121.14 25.056C120.588 24.216 120.312 23.232 120.312 22.104C120.312 21.048 120.54 20.1 120.996 19.26C121.476 18.42 122.208 17.712 123.192 17.136C124.176 16.56 125.412 16.152 126.9 15.912L133.668 14.796V18L127.692 19.044C126.612 19.236 125.82 19.584 125.316 20.088C124.812 20.568 124.56 21.192 124.56 21.96C124.56 22.704 124.836 23.316 125.388 23.796C125.964 24.252 126.696 24.48 127.584 24.48C128.688 24.48 129.648 24.24 130.464 23.76C131.304 23.28 131.952 22.644 132.408 21.852C132.864 21.036 133.092 20.136 133.092 19.152V14.148C133.092 13.188 132.732 12.408 132.012 11.808C131.316 11.184 130.38 10.872 129.204 10.872C128.124 10.872 127.176 11.16 126.36 11.736C125.568 12.288 124.98 13.008 124.596 13.896L121.212 12.204C121.572 11.244 122.16 10.404 122.976 9.68395C123.792 8.93995 124.74 8.36395 125.82 7.95595C126.924 7.54795 128.088 7.34395 129.312 7.34395C130.848 7.34395 132.204 7.63195 133.38 8.20795C134.58 8.78395 135.504 9.58795 136.152 10.62C136.824 11.628 137.16 12.804 137.16 14.148V27.252H133.272V23.724L134.1 23.832C133.644 24.624 133.056 25.308 132.336 25.884C131.64 26.46 130.836 26.904 129.924 27.216C129.036 27.528 128.04 27.684 126.936 27.684ZM141.916 27.252V7.77595H145.984V27.252H141.916ZM141.916 5.11195V0.431951H145.984V5.11195H141.916ZM150.74 27.252V7.77595H154.628V11.592L154.16 11.088C154.64 9.86395 155.408 8.93995 156.464 8.31595C157.52 7.66795 158.744 7.34395 160.136 7.34395C161.576 7.34395 162.848 7.65595 163.952 8.27995C165.056 8.90395 165.92 9.76795 166.544 10.872C167.168 11.976 167.48 13.248 167.48 14.688V27.252H163.448V15.768C163.448 14.784 163.268 13.956 162.908 13.284C162.548 12.588 162.032 12.06 161.36 11.7C160.712 11.316 159.968 11.124 159.128 11.124C158.288 11.124 157.532 11.316 156.86 11.7C156.212 12.06 155.708 12.588 155.348 13.284C154.988 13.98 154.808 14.808 154.808 15.768V27.252H150.74Z" fill="black"/>
</svg>
