<svg width="60" height="60" viewBox="0 0 60 60" fill="none" xmlns="http://www.w3.org/2000/svg">
<rect width="60" height="60" rx="30" fill="#FF044B"/>
<path d="M30 10C21.73 10 15 16.7767 15 25.1083C15 36.9467 28.59 49.17 29.1683 49.6833C29.4067 49.895 29.7033 50 30 50C30.2967 50 30.5933 49.895 30.8317 49.685C31.41 49.17 45 36.9467 45 25.1083C45 16.7767 38.27 10 30 10ZM30 33.3333C25.405 33.3333 21.6667 29.595 21.6667 25C21.6667 20.405 25.405 16.6667 30 16.6667C34.595 16.6667 38.3333 20.405 38.3333 25C38.3333 29.595 34.595 33.3333 30 33.3333Z" fill="white"/>
</svg>
