<svg width="60" height="60" viewBox="0 0 60 60" fill="none" xmlns="http://www.w3.org/2000/svg">
<g clip-path="url(#clip0_81_2149)">
<path d="M34.9376 16.0154C27.6643 14.4907 21.9795 8.80582 20.455 1.53246C20.2677 0.639609 19.4802 0 18.5677 0C17.6551 0 16.8676 0.639609 16.6805 1.53258C15.1559 8.80582 9.47098 14.4906 2.19773 16.0151C1.30477 16.2022 0.665039 16.9898 0.665039 17.9023C0.665039 18.8147 1.30465 19.6023 2.19773 19.7895C9.47086 21.3142 15.1555 26.9989 16.6801 34.2722C16.8673 35.1652 17.6548 35.8049 18.5673 35.8049C19.4797 35.8049 20.2673 35.1653 20.4545 34.2722C21.9792 26.9989 27.6642 21.3142 34.9375 19.7898C35.8304 19.6027 36.4702 18.8152 36.4702 17.9026C36.47 16.9902 35.8304 16.2026 34.9376 16.0154Z" fill="#FF044B"/>
<path d="M31.7505 47.8691C28.3237 47.1509 25.6453 44.4724 24.9268 41.0454C24.7396 40.1524 23.9521 39.5127 23.0396 39.5127C22.1272 39.5127 21.3396 40.1522 21.1524 41.0453C20.4339 44.4722 17.7554 47.1506 14.3286 47.869C13.4356 48.0561 12.7959 48.8438 12.7959 49.7562C12.7959 50.6686 13.4355 51.4562 14.3286 51.6434C17.7553 52.3617 20.4338 55.0403 21.1522 58.4672C21.3393 59.3602 22.1268 59.9999 23.0394 59.9999C23.9518 59.9999 24.7394 59.3604 24.9266 58.4672C25.645 55.0403 28.3236 52.3618 31.7505 51.6435C32.6435 51.4563 33.2832 50.6687 33.2832 49.7563C33.2832 48.8439 32.6436 48.0564 31.7505 47.8691Z" fill="#FF044B"/>
<path d="M57.8023 30.0157C53.1703 29.0447 49.55 25.4243 48.5791 20.7925C48.392 19.8995 47.6045 19.2598 46.692 19.2598C45.7795 19.2598 44.9919 19.8993 44.8048 20.7923C43.8337 25.4243 40.2135 29.0446 35.5815 30.0155C34.6886 30.2026 34.0488 30.9902 34.0488 31.9027C34.0488 32.8151 34.6884 33.6026 35.5815 33.7898C40.2134 34.7609 43.8336 38.3811 44.8045 43.0131C44.9917 43.9061 45.7792 44.5458 46.6917 44.5458C47.6041 44.5458 48.3918 43.9063 48.5789 43.0131C49.55 38.3811 53.1703 34.7609 57.8021 33.7901C58.6951 33.6028 59.3348 32.8153 59.3348 31.9029C59.3348 30.9905 58.6952 30.2029 57.8023 30.0157Z" fill="#FF044B"/>
</g>
<defs>
<clipPath id="clip0_81_2149">
<rect width="60" height="60" fill="white"/>
</clipPath>
</defs>
</svg>
