<svg width="60" height="60" viewBox="0 0 60 60" fill="none" xmlns="http://www.w3.org/2000/svg">
<path d="M44.5456 48.4848C42.4245 49.6969 39.6972 50.303 36.6668 50.303C30.3032 50.303 25.7577 47.2727 22.7274 41.5151H42.1213V34.2423H20.6063C20.3033 33.0303 20.3033 31.818 20.3033 30.303C20.3033 29.0909 20.3033 27.8787 20.3033 27.2727H42.1215V20H22.1215C23.6365 16.9697 25.4547 14.5455 28.182 12.7273C30.6063 10.9091 33.6365 10 36.9699 10C40.0002 10 43.0306 10.303 45.1517 11.5152C47.2729 12.7273 49.6972 14.5455 52.1215 17.2727L58.182 9.69702C52.7275 3.33338 45.7577 0 36.6668 0C30.6063 0 25.4547 1.81818 20.6063 5.75753C15.7578 9.39389 12.4245 14.2423 10.6063 20.303H1.81836V26.9696H9.09109C9.09109 27.5757 9.09109 28.7878 9.09109 29.9999C9.09109 31.2119 9.09109 32.7271 9.39407 33.9392H1.81836V41.2119H11.2123C13.0304 46.9695 16.3638 51.5149 20.9093 54.8483C25.4547 58.1817 30.9093 60 36.6668 60C45.4547 60 52.4243 56.9697 57.5759 50.303L51.5152 43.0303C49.0911 45.4545 46.6668 47.2727 44.5456 48.4848Z" fill="#FF044B"/>
</svg>
