<svg width="60" height="60" viewBox="0 0 60 60" fill="none" xmlns="http://www.w3.org/2000/svg">
<path fill-rule="evenodd" clip-rule="evenodd" d="M30.8203 32.2458V42.5252C33.9701 42.4885 37.1117 42.1948 40.2137 41.647C38.5419 37.7391 35.3764 32.8056 30.8203 32.2458ZM13.6341 29.5912C13.6341 32.8383 1.875 32.8383 1.875 29.5912C1.87557 28.663 2.09578 27.7481 2.51764 26.9213C2.9395 26.0944 3.55103 25.3791 4.30225 24.8339C5.05347 24.2887 5.92305 23.9289 6.83992 23.7841C7.75679 23.6393 8.69491 23.7134 9.57762 24.0006C9.5178 24.4316 9.48777 24.8662 9.48773 25.3014C9.48773 27.6288 11.6674 28.8718 13.6324 29.4647C13.6334 29.5069 13.6341 29.5489 13.6341 29.5912ZM39.6183 23.3555C39.6183 28.6673 20.3817 28.6673 20.3817 23.3555C20.3817 20.8045 21.3951 18.3581 23.1988 16.5543C25.0026 14.7505 27.4491 13.7372 30 13.7372C32.5509 13.7372 34.9974 14.7505 36.8012 16.5543C38.6049 18.3581 39.6183 20.8045 39.6183 23.3555ZM25.5548 6.72996C25.5547 7.60924 25.8153 8.46882 26.3037 9.19998C26.7921 9.93114 27.4864 10.501 28.2987 10.8376C29.111 11.1742 30.0049 11.2623 30.8673 11.0908C31.7297 10.9193 32.5219 10.496 33.1437 9.87424C33.7654 9.25251 34.1889 8.46037 34.3604 7.59798C34.532 6.7356 34.4439 5.84171 34.1074 5.02936C33.7709 4.21702 33.2011 3.5227 32.47 3.03424C31.7388 2.54577 30.8793 2.28509 30 2.28516C28.8211 2.28513 27.6904 2.75338 26.8568 3.58693C26.0231 4.42048 25.5546 5.55105 25.5545 6.72996H25.5548ZM23.2017 28.0163C21.0689 27.3035 18.7411 25.8899 18.7411 23.3551C18.7384 21.3601 19.2683 19.4005 20.2763 17.6788C19.1589 17.4748 18.0104 17.5187 16.9119 17.8075C15.8134 18.0963 14.7917 18.6228 13.9192 19.35C13.0466 20.0771 12.3444 20.987 11.8622 22.0154C11.3801 23.0438 11.1297 24.1655 11.1288 25.3014C11.1288 28.2804 18.638 29.1848 23.2022 28.0163H23.2017ZM48.8716 25.3008C48.8708 24.165 48.6204 23.0432 48.1383 22.0149C47.6561 20.9865 46.954 20.0766 46.0814 19.3495C45.2089 18.6224 44.1872 18.0958 43.0888 17.807C41.9903 17.5183 40.8418 17.4743 39.7245 17.6783C40.7323 19.4003 41.262 21.3602 41.2589 23.3555C41.2589 25.8907 38.9313 27.3035 36.7982 28.0166C41.3625 29.1852 48.8716 28.2807 48.8716 25.3016V25.3008ZM37.5416 11.9073C37.5415 12.6157 37.7514 13.3082 38.1449 13.8973C38.5383 14.4863 39.0976 14.9455 39.7521 15.2167C40.4065 15.4879 41.1266 15.5589 41.8214 15.4208C42.5162 15.2826 43.1544 14.9416 43.6554 14.4407C44.1563 13.9398 44.4975 13.3017 44.6357 12.6069C44.774 11.9121 44.7031 11.192 44.432 10.5375C44.1609 9.88304 43.7018 9.32366 43.1128 8.9301C42.5238 8.53655 41.8314 8.3265 41.123 8.32652C40.1732 8.32649 39.2624 8.70372 38.5907 9.37524C37.9191 10.0468 37.5417 10.9576 37.5416 11.9073ZM15.296 11.9073C15.2959 12.6157 15.5058 13.3082 15.8993 13.8973C16.2927 14.4863 16.852 14.9455 17.5064 15.2167C18.1609 15.4878 18.881 15.5589 19.5758 15.4208C20.2706 15.2826 20.9088 14.9416 21.4097 14.4407C21.9107 13.9399 22.2519 13.3017 22.3901 12.607C22.5284 11.9122 22.4575 11.1921 22.1864 10.5376C21.9154 9.88312 21.4563 9.32373 20.8673 8.93016C20.2784 8.53659 19.5859 8.32652 18.8775 8.32652C17.9277 8.32649 17.0169 8.70372 16.3452 9.37523C15.6736 10.0467 15.2962 10.9575 15.296 11.9073ZM58.125 29.5912C58.125 32.8383 46.3659 32.8383 46.3659 29.5912C46.3659 29.5489 46.3666 29.5069 46.3676 29.4647C48.3325 28.8718 50.5123 27.6288 50.5123 25.3013C50.5122 24.8661 50.4822 24.4315 50.4224 24.0005C51.3051 23.7133 52.2432 23.6391 53.1601 23.784C54.077 23.9288 54.9466 24.2886 55.6978 24.8338C56.449 25.3791 57.0605 26.0944 57.4824 26.9212C57.9042 27.7481 58.1245 28.663 58.125 29.5912ZM49.5282 19.4285C49.5281 19.966 49.6874 20.4915 49.9859 20.9384C50.2845 21.3854 50.7088 21.7338 51.2054 21.9395C51.7019 22.1453 52.2483 22.1992 52.7755 22.0944C53.3027 21.9896 53.7869 21.7309 54.167 21.3508C54.5471 20.9708 54.806 20.4866 54.9109 19.9595C55.0158 19.4323 54.962 18.8859 54.7564 18.3893C54.5507 17.8927 54.2024 17.4683 53.7555 17.1697C53.3086 16.871 52.7832 16.7116 52.2457 16.7116C51.5251 16.7116 50.834 16.9978 50.3243 17.5073C49.8147 18.0168 49.5284 18.7079 49.5282 19.4285ZM5.0373 19.4285C5.03719 19.966 5.19647 20.4915 5.49499 20.9384C5.79352 21.3854 6.21789 21.7338 6.71443 21.9395C7.21097 22.1453 7.75738 22.1992 8.28456 22.0944C8.81173 21.9896 9.29599 21.7309 9.67609 21.3508C10.0562 20.9708 10.3151 20.4866 10.42 19.9595C10.5249 19.4323 10.4711 18.8859 10.2654 18.3893C10.0598 17.8927 9.71146 17.4683 9.26457 17.1697C8.81767 16.871 8.29225 16.7116 7.75477 16.7116C7.03414 16.7116 6.34302 16.9978 5.8334 17.5073C5.32379 18.0168 5.03743 18.7079 5.0373 19.4285ZM15.0134 57.7148C15.0974 52.2212 16.023 47.1211 17.5529 42.8672C14.842 42.2857 12.1962 41.4338 9.65531 40.3242C5.49534 44.9582 3.05177 50.8795 2.73293 57.0987C2.72883 57.1781 2.74092 57.2574 2.76847 57.332C2.79603 57.4066 2.83846 57.4747 2.8932 57.5324C2.94793 57.59 3.01383 57.6359 3.08686 57.6673C3.1599 57.6987 3.23856 57.7148 3.31805 57.7148H15.0134ZM10.8577 39.0647C13.213 40.0429 15.6549 40.7981 18.1513 41.3203C19.7239 37.5333 22.309 33.3852 26.0614 31.5136C20.3183 32.3459 14.9913 34.9916 10.8577 39.0647ZM33.9389 31.513C39.6823 32.3457 45.0093 34.9918 49.1428 39.0653C46.789 40.0471 44.3473 40.8036 41.8507 41.3246C40.2778 37.5357 37.6925 33.3854 33.9389 31.513ZM50.3452 40.3242C47.8059 41.4375 45.1604 42.291 42.4493 42.8716C43.978 47.1245 44.903 52.2232 44.9871 57.7148H56.6824C56.7619 57.7148 56.8406 57.6987 56.9136 57.6673C56.9866 57.6359 57.0525 57.59 57.1073 57.5324C57.162 57.4747 57.2044 57.4066 57.232 57.332C57.2595 57.2574 57.2716 57.1781 57.2675 57.0987C56.9486 50.8795 54.5049 44.9581 50.3447 40.3242H50.3452ZM43.3458 57.7148H30.8203V44.1661C34.1781 44.128 37.5267 43.8049 40.8299 43.2005C42.3425 47.3188 43.2612 52.3098 43.3458 57.7148ZM29.1797 57.7148H16.6541C16.7388 52.3082 17.6579 47.3157 19.1714 43.1966C22.4735 43.8051 25.8217 44.1295 29.1792 44.1661V57.7148H29.1797ZM19.7878 41.6435C21.4595 37.7367 24.6246 32.8055 29.1797 32.2458V42.5254C26.0301 42.4901 22.8889 42.1952 19.7878 41.6435Z" fill="#FF044B"/>
</svg>
