<svg width="60" height="60" viewBox="0 0 60 60" fill="none" xmlns="http://www.w3.org/2000/svg">
<path d="M43.0824 38.32C42.6668 35.4963 41.2529 32.915 39.0971 31.0445C36.9413 29.1741 34.1865 28.1382 31.3324 28.125H28.6724C25.8182 28.1382 23.0634 29.1741 20.9076 31.0445C18.7518 32.915 17.3379 35.4963 16.9224 38.32L15.6474 47.235C15.6066 47.5232 15.6335 47.8169 15.726 48.0928C15.8184 48.3688 15.9738 48.6195 16.1799 48.825C16.6799 49.325 19.7474 51.875 30.0049 51.875C40.2624 51.875 43.3224 49.335 43.8299 48.825C44.0359 48.6195 44.1913 48.3688 44.2837 48.0928C44.3762 47.8169 44.4031 47.5232 44.3624 47.235L43.0824 38.32Z" fill="#FF044B"/>
<path d="M18.9001 29.5001C16.4839 31.7275 14.9119 34.7215 14.4501 37.9751L13.5251 44.3751C6.10012 44.3251 3.85012 41.6251 3.47512 41.0751C3.33017 40.8753 3.22672 40.6484 3.1709 40.408C3.11508 40.1675 3.10802 39.9183 3.15012 39.6751L3.70012 36.5751C3.98668 34.9549 4.65967 33.4278 5.66205 32.1231C6.66443 30.8185 7.96663 29.7747 9.45824 29.0805C10.9498 28.3862 12.5869 28.0618 14.2305 28.1348C15.8742 28.2079 17.476 28.6762 18.9001 29.5001Z" fill="#FF044B"/>
<path d="M56.8496 39.6751C56.8917 39.9183 56.8846 40.1675 56.8288 40.408C56.773 40.6484 56.6696 40.8753 56.5246 41.0751C56.1496 41.6251 53.8996 44.3251 46.4746 44.3751L45.5496 37.9751C45.0879 34.7215 43.5158 31.7275 41.0996 29.5001C42.5237 28.6762 44.1255 28.2079 45.7692 28.1348C47.4129 28.0618 49.0499 28.3862 50.5415 29.0805C52.0331 29.7747 53.3353 30.8185 54.3377 32.1231C55.3401 33.4278 56.0131 34.9549 56.2996 36.5751L56.8496 39.6751Z" fill="#FF044B"/>
<path d="M19.325 24C18.6957 24.8925 17.8603 25.6199 16.8897 26.1204C15.9191 26.621 14.842 26.8798 13.75 26.875C12.6606 26.875 11.5869 26.6161 10.6172 26.1197C9.64751 25.6233 8.80967 24.9036 8.17271 24.0199C7.53575 23.1362 7.11791 22.1137 6.95363 21.0368C6.78935 19.9599 6.88332 18.8594 7.2278 17.8259C7.57229 16.7925 8.15742 15.8557 8.93499 15.0927C9.71256 14.3298 10.6603 13.7625 11.7001 13.4377C12.7399 13.1129 13.842 13.0398 14.9156 13.2245C15.9892 13.4092 17.0035 13.8464 17.875 14.5C17.6243 15.4803 17.4983 16.4882 17.5 17.5C17.5019 19.7929 18.1332 22.0412 19.325 24Z" fill="#FF044B"/>
<path d="M53.1248 20C53.1255 20.903 52.9481 21.7973 52.6028 22.6317C52.2575 23.4661 51.7512 24.2243 51.1126 24.8628C50.4741 25.5014 49.7159 26.0077 48.8815 26.353C48.0471 26.6983 47.1528 26.8757 46.2498 26.875C45.1578 26.8798 44.0807 26.621 43.1101 26.1204C42.1395 25.6199 41.3041 24.8925 40.6748 24C41.8666 22.0412 42.4979 19.7929 42.4998 17.5C42.5015 16.4882 42.3755 15.4803 42.1248 14.5C43.1462 13.7339 44.3608 13.2674 45.6324 13.1528C46.904 13.0381 48.1824 13.2798 49.3244 13.8508C50.4664 14.4218 51.4268 15.2995 52.098 16.3856C52.7693 17.4717 53.1248 18.7232 53.1248 20Z" fill="#FF044B"/>
<path d="M30 26.875C35.1777 26.875 39.375 22.6777 39.375 17.5C39.375 12.3223 35.1777 8.125 30 8.125C24.8223 8.125 20.625 12.3223 20.625 17.5C20.625 22.6777 24.8223 26.875 30 26.875Z" fill="#FF044B"/>
</svg>
