<svg class="w-[26px] h-[26px] md:w-[65px] md:h-[65px] lg:w-[77px] lg:h-[77px]" viewBox="0 0 77 77" fill="none" xmlns="http://www.w3.org/2000/svg">
<rect width="77" height="77" rx="10" fill="#FF044B"/>
<g clip-path="url(#clip0_1_41)">
<path d="M38.5001 15C28.6052 15 18.7105 16.2369 18.7105 24.8947V48.3948C18.7105 53.1689 22.5942 57.0527 27.3685 57.0527L23.658 60.7632V62.0001H29.1742L34.1216 57.0527H43.4475L48.3948 62H53.3422V60.7631L49.6317 57.0526C54.4058 57.0526 58.2896 53.1689 58.2896 48.3946V24.8947C58.2895 16.2369 49.4337 15 38.5001 15ZM27.3685 52.1053C25.3153 52.1053 23.658 50.448 23.658 48.3948C23.658 46.3416 25.3153 44.6842 27.3685 44.6842C29.4217 44.6842 31.079 46.3416 31.079 48.3948C31.079 50.448 29.4216 52.1053 27.3685 52.1053ZM36.0263 34.7895H23.658V24.8947H36.0264V34.7895H36.0263ZM49.6317 52.1053C47.5785 52.1053 45.9211 50.448 45.9211 48.3948C45.9211 46.3416 47.5785 44.6842 49.6317 44.6842C51.6849 44.6842 53.3422 46.3416 53.3422 48.3948C53.3422 50.448 51.6847 52.1053 49.6317 52.1053ZM53.3422 34.7895H40.9737V24.8947H53.3422V34.7895Z" fill="white"/>
</g>
<defs>
<clipPath id="clip0_1_41">
<rect width="47" height="47" fill="white" transform="translate(15 15)"/>
</clipPath>
</defs>
</svg>
