<svg class="w-full h-full" viewBox="0 0 47 70" fill="none" xmlns="http://www.w3.org/2000/svg">
<path d="M40.3622 69.59H6.03115C2.70629 69.59 0 66.8837 0 63.5589V6.03114C0 2.70628 2.70629 0 6.03115 0H40.3622C43.6871 0 46.3933 2.70628 46.3933 6.03114V63.5589C46.3933 66.8837 43.6871 69.59 40.3622 69.59Z" fill="url(#paint0_linear_1_351)"/>
<path d="M44.8469 33.9444V6.03108C44.8469 3.55677 42.8366 1.54639 40.3622 1.54639H6.03118C3.55687 1.54639 1.54648 3.55677 1.54648 6.03108V33.9444H44.8469Z" fill="url(#paint1_linear_1_351)"/>
<path d="M1.54651 35.8002V63.5589C1.54651 66.0332 3.5569 68.0435 6.03121 68.0435H40.3623C42.8366 68.0435 44.847 66.0332 44.847 63.5589V35.8002H1.54651Z" fill="url(#paint2_linear_1_351)"/>
<path d="M1.54646 40.2074C0.927883 40.2074 0.386627 39.6662 0.386627 39.0476V30.5422C0.386627 29.9236 0.927883 29.3823 1.54646 29.3823C2.16504 29.3823 2.70629 29.9236 2.70629 30.5422V39.0476C2.70629 39.6662 2.24236 40.2074 1.54646 40.2074Z" fill="black"/>
<path d="M1.54643 39.4343C1.31446 39.4343 1.15982 39.2797 1.15982 39.0477V30.5423C1.15982 30.3103 1.31446 30.1556 1.54643 30.1556C1.7784 30.1556 1.93304 30.3103 1.93304 30.5423V39.0477C1.93304 39.2023 1.7784 39.4343 1.54643 39.4343Z" fill="url(#paint3_linear_1_351)"/>
<path d="M44.8469 40.2074C44.2283 40.2074 43.6871 39.6662 43.6871 39.0476V30.5422C43.6871 29.9236 44.2283 29.3823 44.8469 29.3823C45.4655 29.3823 46.0067 29.9236 46.0067 30.5422V39.0476C46.0067 39.6662 45.5428 40.2074 44.8469 40.2074Z" fill="black"/>
<path d="M44.8469 39.4343C44.615 39.4343 44.4603 39.2797 44.4603 39.0477V30.5423C44.4603 30.3103 44.615 30.1556 44.8469 30.1556C45.0789 30.1556 45.2335 30.3103 45.2335 30.5423V39.0477C45.2335 39.2023 45.0789 39.4343 44.8469 39.4343Z" fill="url(#paint4_linear_1_351)"/>
<path d="M40.3622 69.0487H6.03118C2.70632 69.0487 3.05176e-05 66.3424 3.05176e-05 63.0176V63.5588C3.05176e-05 66.8837 2.70632 69.59 6.03118 69.59H40.3622C43.6871 69.59 46.3934 66.8837 46.3934 63.5588V63.0176C46.3934 66.3424 43.6871 69.0487 40.3622 69.0487Z" fill="url(#paint5_linear_1_351)"/>
<path d="M40.3622 1.54639H6.03118C3.55687 1.54639 1.54648 3.55677 1.54648 6.03108V6.72697C1.54648 4.25266 3.55687 2.24228 6.03118 2.24228H40.3622C42.8366 2.24228 44.8469 4.25266 44.8469 6.72697V6.03108C44.8469 3.55677 42.8366 1.54639 40.3622 1.54639Z" fill="url(#paint6_linear_1_351)"/>
<path d="M40.3622 68.0435H6.03118C3.55687 68.0435 1.54648 66.0331 1.54648 63.5588V62.8629C1.54648 65.3372 3.55687 67.3476 6.03118 67.3476H40.3622C42.8366 67.3476 44.8469 65.3372 44.8469 62.8629V63.5588C44.8469 66.0331 42.8366 68.0435 40.3622 68.0435Z" fill="url(#paint7_linear_1_351)"/>
<defs>
<linearGradient id="paint0_linear_1_351" x1="22.8457" y1="0.273953" x2="23.6138" y2="69.2109" gradientUnits="userSpaceOnUse">
<stop offset="0.0124362"/>
<stop offset="1" stop-color="#1A1A1A"/>
</linearGradient>
<linearGradient id="paint1_linear_1_351" x1="23.2302" y1="1.48167" x2="23.2302" y2="33.8227" gradientUnits="userSpaceOnUse">
<stop offset="0.00249123" stop-color="#1A1A1A"/>
<stop offset="1" stop-color="#333333"/>
</linearGradient>
<linearGradient id="paint2_linear_1_351" x1="23.2302" y1="36.2319" x2="23.2302" y2="68.2712" gradientUnits="userSpaceOnUse">
<stop stop-color="#333333"/>
<stop offset="0.9975" stop-color="#1A1A1A"/>
</linearGradient>
<linearGradient id="paint3_linear_1_351" x1="1.56391" y1="30.1842" x2="1.59847" y2="40.0899" gradientUnits="userSpaceOnUse">
<stop stop-color="#FDFDFE"/>
<stop offset="0.0333623" stop-color="#EBEAEB"/>
<stop offset="0.1316" stop-color="#BBB9BA"/>
<stop offset="0.2348" stop-color="#908D8D"/>
<stop offset="0.3411" stop-color="#6C6968"/>
<stop offset="0.4515" stop-color="#4F4B4A"/>
<stop offset="0.5671" stop-color="#393333"/>
<stop offset="0.6902" stop-color="#292322"/>
<stop offset="0.8262" stop-color="#1F1918"/>
<stop offset="1" stop-color="#1C1615"/>
</linearGradient>
<linearGradient id="paint4_linear_1_351" x1="44.8644" y1="30.1842" x2="44.899" y2="40.0899" gradientUnits="userSpaceOnUse">
<stop stop-color="#FDFDFE"/>
<stop offset="0.0333623" stop-color="#EBEAEB"/>
<stop offset="0.1316" stop-color="#BBB9BA"/>
<stop offset="0.2348" stop-color="#908D8D"/>
<stop offset="0.3411" stop-color="#6C6968"/>
<stop offset="0.4515" stop-color="#4F4B4A"/>
<stop offset="0.5671" stop-color="#393333"/>
<stop offset="0.6902" stop-color="#292322"/>
<stop offset="0.8262" stop-color="#1F1918"/>
<stop offset="1" stop-color="#1C1615"/>
</linearGradient>
<linearGradient id="paint5_linear_1_351" x1="23.2302" y1="69.0903" x2="23.2302" y2="69.7299" gradientUnits="userSpaceOnUse">
<stop stop-color="#414042"/>
<stop offset="0.9992" stop-color="#939598"/>
</linearGradient>
<linearGradient id="paint6_linear_1_351" x1="23.2302" y1="1.53819" x2="23.2302" y2="2.22203" gradientUnits="userSpaceOnUse">
<stop offset="0.00249123" stop-color="#939598"/>
<stop offset="0.9971" stop-color="#414042"/>
</linearGradient>
<linearGradient id="paint7_linear_1_351" x1="23.2302" y1="68.0124" x2="23.2302" y2="67.3286" gradientUnits="userSpaceOnUse">
<stop offset="0.00394611" stop-color="#6D6E71"/>
<stop offset="0.9971" stop-color="#414042"/>
</linearGradient>
</defs>
</svg>
